<?xml version="1.0" encoding="UTF-8" standalone="no"?>
<svg xmlns:dc="http://purl.org/dc/elements/1.1/" xmlns:cc="http://creativecommons.org/ns#" xmlns:rdf="http://www.w3.org/1999/02/22-rdf-syntax-ns#" xmlns:svg="http://www.w3.org/2000/svg" xmlns="http://www.w3.org/2000/svg" xmlns:sodipodi="http://sodipodi.sourceforge.net/DTD/sodipodi-0.dtd" xmlns:inkscape="http://www.inkscape.org/namespaces/inkscape" id="Layer_1" data-name="Layer 1" viewBox="0 0 600 600" version="1.1" sodipodi:docname="Delivery-logos_Uber-eats.svg" inkscape:version="0.92.4 5da689c313, 2019-01-14">
<metadata id="metadata67"> <rdf:RDF> <cc:Work rdf:about=""> <dc:format>image/svg+xml</dc:format> <dc:type rdf:resource="http://purl.org/dc/dcmitype/StillImage" /> <dc:title>Delivery logos</dc:title> </cc:Work> </rdf:RDF> </metadata> <sodipodi:namedview pagecolor="#ffffff" bordercolor="#666666" borderopacity="1" objecttolerance="10" gridtolerance="10" guidetolerance="10" inkscape:pageopacity="0" inkscape:pageshadow="2" inkscape:window-width="1366" inkscape:window-height="746" id="namedview65" showgrid="false" inkscape:zoom="0.925" inkscape:cx="212.43243" inkscape:cy="343.24324" inkscape:window-x="0" inkscape:window-y="22" inkscape:window-maximized="0" inkscape:current-layer="Layer_1" /> <defs id="defs56"> <style id="style54">.cls-1{fill:#272626;}.cls-2{fill:#5fb746;}</style> </defs> <title id="title58">Delivery logos</title> <g id="g882" transform="matrix(1.5242166,0,0,1.5242166,-328.0696,148.14508)"> <circle r="189.72974" cy="98.918922" cx="411.35135" id="path877" style="fill:#ffffff;fill-opacity:1" /> <path inkscape:connector-curvature="0" style="fill:#75ab2e;fill-opacity:1;stroke-width:0.54802459" id="path60" d="m 537.03526,41.444131 c -7.96279,0 -13.60745,6.225561 -13.60745,15.788592 V 92.306296 H 511.27263 V 30.57133 h 12.00721 v 7.540812 a 16.28729,16.28729 0 0 1 14.46785,-7.979238 h 4.3842 v 11.311227 z m -34.15837,19.997424 c 0,-18.413631 -13.10327,-32.180004 -30.82638,-32.180004 a 31.785426,31.785426 0 0 0 -31.56074,31.988194 c 0,0.06028 0,0.126041 0,0.19181 0,18.397178 14.18836,32.333441 32.70062,32.333441 a 32.295089,32.295089 0 0 0 26.63948,-13.185469 l -8.79579,-6.488605 a 21.504484,21.504484 0 0 1 -17.81628,8.982121 20.704369,20.704369 0 0 1 -20.37555,-17.66831 h 50.08396 z M 453.08338,55.78046 c 2.1921,-9.420547 9.69455,-15.794074 18.81916,-15.794074 9.12461,0 16.63803,6.373527 18.67119,15.794074 z M 401.99653,29.261551 a 30.749659,30.749659 0 0 0 -21.8333,9.124606 V 7.5159319 H 368.01352 V 92.311776 h 12.00722 v -7.831268 a 31.237401,31.237401 0 0 0 22.00318,9.272568 32.253042,32.253042 0 0 0 1.37007,-64.491525 c -0.45486,0 -0.90972,0 -1.37007,0 z m -0.87137,53.635164 a 21.372959,21.372959 0 1 1 21.2798,-21.482568 v 0.169892 a 21.224992,21.224992 0 0 1 -21.19211,21.252388 h -0.0877 z m -77.86881,-0.586384 c 11.73321,0 20.82494,-8.993084 20.82494,-22.469014 V 7.5159319 h 12.60456 V 92.311776 H 344.2457 v -8.023077 a 30.930507,30.930507 0 0 1 -22.43065,9.420537 c -18.08481,0 -32.02108,-13.18547 -32.02108,-33.182886 V 7.5159319 h 12.82378 V 59.912559 c 0,13.552655 8.73551,22.397772 20.6386,22.397772 z" class="cls-1" /> <path inkscape:connector-curvature="0" style="fill:#75ab2e;fill-opacity:1;stroke-width:0.54802459" id="path62" d="m 289.8159,112.93395 h 59.48807 v 14.55553 h -43.41999 v 20.66601 h 42.19789 v 14.0623 h -42.19789 v 21.01675 h 43.41999 v 14.55553 H 289.8159 Z m 223.76391,86.39059 c 18.23825,0 28.49727,-8.73551 28.49727,-20.72629 0,-8.5437 -6.08306,-14.91723 -18.81916,-17.68475 l -13.46496,-2.74013 c -7.81483,-1.45774 -10.27546,-2.91001 -10.27546,-5.82001 0,-3.77042 3.77041,-6.08308 10.71388,-6.08308 7.52438,0 13.09779,2.02221 14.55553,8.97664 h 15.77763 c -0.8604,-13.09778 -10.28094,-21.74561 -29.37412,-21.74561 -16.50649,0 -28.09174,6.81194 -28.09174,20.01386 0,9.1246 6.37901,15.0652 20.12895,17.95876 l 15.04875,3.47995 c 5.94058,1.1673 7.52438,2.76754 7.52438,5.22816 0,3.91289 -4.47737,6.37353 -11.72773,6.37353 -9.11365,0 -14.31988,-2.02221 -16.34758,-8.98213 h -15.84339 c 2.31267,13.05395 12.00723,21.7511 31.69775,21.7511 z m -36.28471,-1.58927 h -17.07096 c -10.71388,0 -16.65447,-6.66398 -16.65447,-15.07615 v -33.33634 h -12.00722 v -14.2048 h 12.05654 v -17.83272 h 15.86531 v 17.83272 h 17.79984 v 14.2048 h -17.78888 v 29.26999 c 0,3.33199 2.31267,4.93223 5.93511,4.93223 h 11.86473 z m -68.40442,-62.58989 v 5.65013 a 30.782541,30.782541 0 0 0 -19.98647,-7.27776 32.91064,32.91064 0 1 0 -1.38102,65.80679 h 1.38102 a 30.738698,30.738698 0 0 0 19.98647,-7.27777 v 5.6337 h 15.83242 v -62.56249 z m -18.67669,50.41826 a 19.142499,19.142499 0 1 1 18.92329,-19.35622 v 0.23565 a 18.917809,18.917809 0 0 1 -18.74791,19.09317 h -0.19181 z" class="cls-2" /> </g>
</svg>
