<svg width="44" height="44" viewBox="0 0 44 44" fill="none" xmlns="http://www.w3.org/2000/svg">
<path d="M22.0001 0C9.84992 0 0 9.8911 0 22.0921C0 33.035 7.93148 42.0975 18.3309 43.8524V26.7011H13.0239V20.5291H18.3309V15.978C18.3309 10.6975 21.5427 7.81996 26.2343 7.81996C28.4814 7.81996 30.4124 7.98809 30.973 8.06215V13.5817L27.719 13.5833C25.1681 13.5833 24.6762 14.8003 24.6762 16.5868V20.5259H30.763L29.9691 26.698H24.6762V44C35.5612 42.6697 44 33.3763 44 22.0858C44 9.8911 34.1501 0 22.0001 0Z" fill="#D3D8CD"/>
</svg>
