<svg width="92" height="67" viewBox="0 0 92 67" fill="none" xmlns="http://www.w3.org/2000/svg">
<g clip-path="url(#clip0)">
<path d="M91.4746 34.2914C91.4746 52.1499 71.4383 66.6771 46.8145 66.6771C32.621 66.6771 19.5962 61.9523 11.0711 53.7124C11.0681 53.7102 11.0626 53.7068 11.0595 53.7038C4.30242 47.8852 0.58136 40.4823 0.58136 32.8573C0.58136 15.0022 20.6149 0.47226 45.2393 0.47226C56.092 0.47226 66.2655 3.23824 74.2636 8.22009C73.9385 8.40456 73.6253 8.57412 73.1922 8.82322C65.6479 4.74577 56.4345 2.4951 46.8145 2.4951C22.5122 2.4951 2.74212 16.7586 2.74212 34.2917C2.74212 41.1939 5.75443 47.7565 11.4548 53.2741C11.4575 53.2741 11.4606 53.2769 11.4633 53.2796C19.8689 60.5099 32.1791 64.6542 45.2393 64.6542C69.5416 64.6542 89.3119 50.3908 89.3119 32.8573C89.3119 27.2257 87.3063 21.8194 83.4649 17.022C83.5234 16.7348 83.582 16.4454 83.6433 16.1469C83.6521 16.0972 83.661 16.0472 83.6695 16.0005C88.7291 21.3568 91.4746 27.7438 91.4746 34.2914Z" fill="white"/>
<path d="M28.6147 46.1995C27.527 46.1995 26.4155 46.0891 25.3107 45.8706C24.1984 45.6522 23.1281 45.3189 22.1288 44.8815C21.1173 44.439 20.1652 43.8713 19.2979 43.1928C18.4108 42.4996 17.6493 41.6568 17.0369 40.6891L16.6196 40.0305L22.4528 36.0064L22.8911 36.7732C23.4087 37.6793 24.2125 38.4387 25.2811 39.0327C26.3586 39.6314 27.5701 39.9347 28.882 39.9347C29.5576 39.9347 30.236 39.8521 30.8986 39.6903C31.5273 39.537 32.0976 39.284 32.5942 38.9411C33.0798 38.605 33.4687 38.1789 33.7833 37.6379C34.0802 37.127 34.231 36.4604 34.231 35.6584C34.231 35.0823 34.1123 34.5933 33.8678 34.1616C33.6082 33.7049 33.2547 33.2953 32.8163 32.9443C32.347 32.5696 31.7913 32.2263 31.1652 31.927C30.5094 31.6141 29.8015 31.3252 29.0635 31.0692C28.0669 30.6961 27.1267 30.2767 26.2501 29.8152C25.3347 29.3342 24.5122 28.7393 23.8059 28.0489C23.0767 27.337 22.4975 26.4729 22.0846 25.4823C21.6733 24.4962 21.4645 23.3247 21.4645 22.0014C21.4645 20.2939 21.836 18.7513 22.5688 17.4161C23.2913 16.1002 24.2594 14.9782 25.4463 14.0798C26.6193 13.1923 27.9902 12.5102 29.5203 12.0529C31.8325 11.3619 34.2783 11.1084 36.8835 11.6566C37.7784 11.8452 38.6567 12.1247 39.4942 12.487C40.3333 12.8521 41.1351 13.3091 41.8786 13.8462C42.6493 14.4043 43.3064 15.0701 43.8328 15.8254L44.2665 16.4482L38.9442 20.7051L38.4606 19.9327C37.9455 19.1098 37.2928 18.5237 36.465 18.1416C35.6096 17.7469 34.6652 17.5473 33.6582 17.5473C33.1641 17.5473 32.6023 17.6285 31.9885 17.7883C31.3903 17.9447 30.8304 18.1877 30.3244 18.5119C29.8427 18.8214 29.4502 19.2268 29.1259 19.751C28.8213 20.2425 28.6671 20.8644 28.6671 21.6001C28.6671 22.4777 28.953 23.1309 29.5422 23.597C30.2611 24.1667 31.2618 24.6958 32.5169 25.1697C35.3668 26.2117 37.6088 27.4944 39.1724 28.9785C40.8213 30.5445 41.6571 32.672 41.6571 35.3016C41.6571 37.2488 41.2619 38.9438 40.4824 40.3387C39.711 41.7217 38.6816 42.8641 37.4234 43.7346C36.1893 44.5884 34.7796 45.2222 33.2348 45.6163C31.7165 46.0032 30.162 46.1995 28.6147 46.1995Z" fill="white"/>
<path d="M45.1785 26.2133L49.7975 56.4907L50.0624 56.0624L55.1305 47.8393L52.7756 26.2133H45.1785Z" fill="white"/>
<path d="M69.3985 28.4858C68.5351 29.7522 67.6937 31.088 66.8983 32.458C63.0836 39.0319 60.4176 46.2788 58.9673 54.0078L74.763 27.5112C73.0107 28.1348 71.2085 28.462 69.3985 28.4858Z" fill="white"/>
<path d="M82.829 11.7298C82.7972 12.8888 82.7558 14.5866 82.3666 16.5829C82.0363 18.2457 81.7582 19.6651 80.8505 21.3364C79.6239 23.5843 78.0429 24.8748 77.5073 25.2879C77.1085 25.598 76.9248 25.7356 76.5583 25.9465C74.8806 26.7924 72.3252 27.7587 69.1689 27.7556C69.1165 27.7556 69.0667 27.7556 69.0137 27.7526C68.0768 29.108 67.1576 30.5539 66.2649 32.0904C60.8662 41.3955 58.5974 50.5308 57.6371 57.6672H50.0751L55.7105 48.3475C55.5141 48.6548 55.8964 48.0072 55.7105 48.3475L66.8739 27.8785L67.0289 27.6002C67.0347 27.6002 67.0347 27.5944 67.0347 27.5944C67.2811 27.416 67.5797 27.1876 67.6285 27.1553C68.4077 26.5784 68.8466 26.2536 69.0982 26.0664C69.4208 25.8234 69.4291 25.8145 69.4706 25.7825C70.6558 24.8665 71.4847 23.9913 71.9708 23.4702C72.8461 22.5308 73.4546 21.7167 73.7385 21.3364C74.6403 20.0951 75.1764 19.0882 75.5333 18.4061C75.5333 18.4061 75.9551 17.6041 76.3677 16.4363C76.4669 16.1521 76.6193 15.6959 76.6193 15.1044V14.7973C76.587 14.9437 76.5318 15.1541 76.4497 15.3971C76.2973 15.8508 76.1332 16.1756 75.9227 16.5738C75.5015 17.3672 75.2905 17.7591 75.0944 18.0811C74.5994 18.8861 74.1694 19.445 73.8614 19.8344C73.7062 20.0304 73.0184 20.9056 71.9617 21.9682C71.1422 22.7967 70.4541 23.3819 70.1672 23.6163C68.6917 24.8488 67.2858 25.7267 66.0125 26.5226C65.9393 26.5693 65.884 26.6016 65.8434 26.6281L65.7202 26.2125L65.6733 26.0749C65.5741 25.6679 65.5272 25.3785 65.3487 24.6378C64.2536 20.0042 66.8648 16.0527 67.1982 15.5755C68.2934 14.0183 69.6576 13.0202 70.2757 12.5635C71.1101 11.9487 72.0349 11.4044 73.18 10.7312C74.2835 10.0811 74.5442 9.97616 75.5659 9.34957C75.7678 9.2206 76.6873 8.66167 77.8965 7.80972C79.2256 6.87632 79.8987 6.41348 80.5252 5.78716C81.3038 5.00895 81.8399 4.25339 82.1882 3.67953C82.2294 3.94603 82.2854 4.35308 82.3523 4.84767C82.4316 5.5295 82.4724 6.01526 82.4987 6.33146C82.6511 8.17259 82.7415 8.31895 82.8061 9.38436C82.871 10.3247 82.847 11.0156 82.829 11.7298Z" fill="#8CC63F"/>
</g>
<defs>
<clipPath id="clip0">
<rect width="92" height="66.7852" fill="white"/>
</clipPath>
</defs>
</svg>
