<?xml version="1.0" encoding="UTF-8" standalone="no"?>
<svg width="92" xmlns="http://www.w3.org/2000/svg" fill="none" viewBox="0 0 92 67" height="67">
 <g clip-path="url(#clip0)">
  <path d="m91.475 34.291c0 17.859-20.037 32.386-44.661 32.386-14.193 0-27.218-4.725-35.743-12.965-0.003-0.002-0.008-0.005-0.011-0.008-6.7576-5.819-10.479-13.222-10.479-20.847 0.00036-17.855 20.034-32.385 44.658-32.385 10.853 0.00026 21.027 2.7662 29.025 7.7481-0.326 0.1845-0.639 0.354-1.072 0.6031-7.544-4.0774-16.758-6.3281-26.378-6.3281-24.302 0-44.072 14.264-44.072 31.797 0.0001 6.902 3.0124 13.464 8.713 18.982 0.003 0 0.006 0.003 0.008 0.006 8.406 7.23 20.716 11.374 33.776 11.374 24.303 0 44.073-14.263 44.073-31.797 0-5.631-2.006-11.038-5.847-15.835 0.058-0.287 0.117-0.577 0.178-0.875 0.009-0.05 0.018-0.1 0.027-0.147 5.059 5.357 7.805 11.744 7.805 18.291z" fill="#fff"/>
  <path d="m28.615 46.2c-1.088 0-2.199-0.111-3.304-0.329-1.113-0.219-2.183-0.552-3.182-0.989-1.012-0.443-1.964-1.011-2.831-1.689-0.887-0.693-1.649-1.536-2.261-2.504l-0.417-0.659 5.833-4.024 0.438 0.767c0.518 0.906 1.321 1.666 2.39 2.26 1.078 0.598 2.289 0.902 3.601 0.902 0.676 0 1.354-0.083 2.017-0.245 0.628-0.153 1.199-0.406 1.695-0.749 0.486-0.336 0.875-0.762 1.189-1.303 0.297-0.511 0.448-1.178 0.448-1.98 0-0.576-0.119-1.065-0.363-1.496-0.26-0.457-0.613-0.867-1.052-1.218-0.469-0.374-1.025-0.718-1.651-1.017-0.656-0.313-1.363-0.602-2.101-0.858-0.997-0.373-1.937-0.792-2.814-1.254-0.915-0.481-1.738-1.076-2.444-1.766-0.729-0.712-1.308-1.576-1.721-2.567-0.412-0.986-0.621-2.157-0.621-3.481 0-1.707 0.372-3.25 1.105-4.585 0.722-1.316 1.69-2.438 2.877-3.336 1.173-0.888 2.544-1.57 4.074-2.027 2.312-0.691 4.758-0.945 7.364-0.396 0.894 0.188 1.773 0.468 2.61 0.83 0.839 0.365 1.641 0.822 2.385 1.359 0.77 0.558 1.427 1.224 1.954 1.979l0.433 0.623-5.322 4.257-0.483-0.772c-0.515-0.823-1.168-1.409-1.996-1.791-0.855-0.395-1.8-0.595-2.807-0.595-0.494 0-1.056 0.081-1.67 0.241-0.598 0.157-1.158 0.4-1.664 0.724-0.481 0.309-0.874 0.715-1.198 1.239-0.305 0.491-0.459 1.113-0.459 1.849 0 0.878 0.286 1.531 0.875 1.997 0.719 0.57 1.72 1.099 2.975 1.573 2.85 1.042 5.092 2.324 6.655 3.808 1.649 1.566 2.485 3.694 2.485 6.324 0 1.947-0.395 3.642-1.175 5.037-0.771 1.383-1.8 2.525-3.059 3.396-1.234 0.853-2.643 1.487-4.188 1.881-1.519 0.387-3.073 0.584-4.62 0.584z" fill="#fff"/>
  <path d="m45.178 26.213l4.62 30.278 0.264-0.429 5.068-8.223-2.354-21.626h-7.598z" fill="#fff"/>
  <path d="m69.398 28.486c-0.863 1.266-1.704 2.602-2.5 3.972-3.814 6.574-6.48 13.821-7.931 21.55l15.796-26.497c-1.752 0.624-3.555 0.951-5.365 0.975z" fill="#fff"/>
  <path d="m82.829 11.73c-0.032 1.159-0.073 2.857-0.462 4.853-0.331 1.663-0.609 3.082-1.517 4.753-1.226 2.248-2.807 3.539-3.343 3.952-0.399 0.31-0.582 0.448-0.949 0.658-1.677 0.846-4.233 1.813-7.389 1.81-0.053 0-0.102 0-0.155-0.003-0.937 1.355-1.856 2.801-2.749 4.337-5.399 9.306-7.668 18.441-8.628 25.577h-7.562l5.635-9.319c-0.196 0.307 0.186-0.341 0 0l11.164-20.47 0.155-0.278c0.006 0 0.006-0.006 0.006-0.006 0.246-0.178 0.545-0.406 0.593-0.439 0.78-0.577 1.219-0.901 1.47-1.089 0.323-0.243 0.331-0.252 0.373-0.284 1.185-0.916 2.014-1.791 2.5-2.312 0.875-0.939 1.484-1.753 1.767-2.134 0.902-1.241 1.438-2.248 1.795-2.93 0 0 0.422-0.802 0.835-1.97 0.099-0.284 0.251-0.74 0.251-1.332v-0.307c-0.032 0.147-0.087 0.357-0.169 0.6-0.153 0.454-0.317 0.779-0.527 1.177-0.421 0.793-0.633 1.185-0.829 1.507-0.495 0.805-0.925 1.364-1.233 1.753-0.155 0.196-0.843 1.072-1.899 2.134-0.82 0.829-1.508 1.414-1.795 1.648-1.475 1.233-2.881 2.111-4.155 2.907-0.073 0.046-0.128 0.079-0.169 0.105l-0.123-0.416-0.047-0.137c-0.099-0.407-0.146-0.697-0.324-1.437-1.095-4.634 1.516-8.585 1.849-9.062 1.095-1.558 2.46-2.556 3.078-3.012 0.834-0.615 1.759-1.16 2.904-1.833 1.104-0.65 1.364-0.7548 2.386-1.3814 0.202-0.129 1.121-0.6879 2.33-1.5399 1.33-0.9334 2.003-1.3962 2.629-2.0225 0.779-0.7782 1.315-1.5338 1.663-2.1077 0.041 0.2665 0.097 0.6736 0.164 1.1682 0.08 0.6818 0.12 1.1676 0.147 1.4838 0.152 1.8411 0.243 1.9875 0.307 3.0529 0.065 0.9406 0.041 1.6316 0.023 2.3456z" fill="#8CC63F"/>
 </g>
 <defs>
  <clipPath id="clip0">
   <rect width="92" fill="#fff" height="66.785"/>
  </clipPath>
 </defs>
</svg>
