<?xml version="1.0" encoding="UTF-8" standalone="no"?>
<svg width="717" xmlns="http://www.w3.org/2000/svg" fill="none" viewBox="0 0 717 186" height="186">
 <path d="m30.374 160.15c-0.34-0.65-0.857-1.2-1.559-1.65-0.704-0.46-1.471-0.69-2.303-0.69-0.963 0-1.852 0.22-2.672 0.67-0.818 0.44-1.52 1.04-2.106 1.81-0.585 0.77-1.047 1.66-1.384 2.66-0.338 1.01-0.508 2.05-0.508 3.15 0 0.73 0.092 1.44 0.276 2.1 0.18 0.66 0.467 1.26 0.857 1.77 0.391 0.52 0.882 0.93 1.481 1.25 0.597 0.3 1.314 0.46 2.147 0.46 1.169 0 2.112-0.23 2.825-0.69 0.717-0.45 1.372-1.02 1.971-1.69l2.614 2.99c-0.989 1.11-2.107 1.99-3.355 2.65-1.248 0.65-2.691 0.98-4.33 0.98-1.351 0-2.58-0.22-3.684-0.66-1.106-0.44-2.054-1.07-2.847-1.88s-1.406-1.77-1.835-2.89-0.643-2.37-0.643-3.76c0-1.71 0.274-3.35 0.819-4.95 0.547-1.58 1.314-2.99 2.302-4.21s2.192-2.2 3.609-2.92c1.415-0.72 2.983-1.08 4.699-1.08 1.403 0 2.735 0.29 3.996 0.86 1.261 0.58 2.23 1.48 2.907 2.72l-3.277 3z" fill="#8CC63F"/>
 <path d="m50.186 175.92c-1.3 0-2.502-0.22-3.606-0.66-1.106-0.44-2.061-1.08-2.868-1.9-0.805-0.83-1.437-1.8-1.891-2.92-0.455-1.12-0.683-2.37-0.683-3.75 0-1.74 0.267-3.4 0.801-4.97 0.532-1.58 1.293-2.97 2.282-4.18 0.988-1.2 2.177-2.17 3.569-2.89 1.39-0.72 2.944-1.08 4.66-1.08 1.326 0 2.541 0.22 3.646 0.66 1.107 0.44 2.061 1.07 2.868 1.88 0.805 0.81 1.437 1.78 1.891 2.91 0.454 1.14 0.683 2.38 0.683 3.74 0 1.76-0.266 3.44-0.801 5.03-0.533 1.59-1.293 2.99-2.282 4.2-0.989 1.2-2.182 2.16-3.587 2.87-1.406 0.71-2.966 1.06-4.682 1.06zm6.748-12.62c0-1.59-0.429-2.91-1.288-3.94-0.858-1.03-2.028-1.55-3.509-1.55-0.989 0-1.879 0.23-2.672 0.69-0.795 0.46-1.47 1.07-2.027 1.84-0.561 0.76-0.997 1.65-1.309 2.66-0.311 1-0.467 2.06-0.467 3.19 0 1.59 0.415 2.91 1.248 3.94 0.831 1.03 2.001 1.55 3.511 1.55 0.987 0 1.884-0.22 2.69-0.66 0.806-0.45 1.489-1.06 2.048-1.82 0.559-0.77 0.995-1.66 1.306-2.68 0.313-1.02 0.469-2.09 0.469-3.22z" fill="#8CC63F"/>
 <path d="m86.38 160.15c-0.34-0.65-0.858-1.2-1.56-1.65-0.703-0.46-1.47-0.69-2.302-0.69-0.963 0-1.853 0.22-2.672 0.67-0.819 0.44-1.52 1.04-2.105 1.81s-1.047 1.66-1.384 2.66c-0.338 1.01-0.508 2.05-0.508 3.15 0 0.73 0.092 1.44 0.274 2.1s0.469 1.26 0.859 1.77c0.39 0.52 0.882 0.93 1.481 1.25 0.597 0.3 1.314 0.46 2.145 0.46 1.17 0 2.113-0.23 2.827-0.69 0.717-0.45 1.372-1.02 1.971-1.69l2.614 2.99c-0.989 1.11-2.107 1.99-3.355 2.65-1.248 0.65-2.692 0.98-4.329 0.98-1.351 0-2.58-0.22-3.685-0.66-1.106-0.44-2.053-1.07-2.847-1.88-0.793-0.81-1.404-1.77-1.834-2.89-0.429-1.12-0.643-2.37-0.643-3.76 0-1.71 0.274-3.35 0.82-4.95 0.546-1.58 1.314-2.99 2.301-4.21 0.988-1.22 2.191-2.2 3.609-2.92 1.415-0.72 2.983-1.08 4.699-1.08 1.403 0 2.736 0.29 3.997 0.86 1.261 0.58 2.229 1.48 2.906 2.72l-3.279 3z" fill="#8CC63F"/>
 <path d="m96.907 175.35l3.273-21.21h4.61l-3.32 21.21h-4.563zm9.403-28.49c0 0.85-0.27 1.6-0.8 2.25s-1.19 0.97-1.97 0.97c-0.76 0-1.4-0.26-1.93-0.8-0.54-0.53-0.8-1.28-0.8-2.25 0-0.94 0.28-1.71 0.85-2.32 0.58-0.6 1.24-0.91 1.99-0.91 0.76 0 1.39 0.28 1.89 0.82 0.51 0.55 0.77 1.29 0.77 2.24z" fill="#8CC63F"/>
 <path d="m121.13 157.46c0.65-1.15 1.47-2.08 2.48-2.81 1-0.72 2.2-1.08 3.6-1.08 1.04 0 1.95 0.17 2.71 0.53 0.77 0.35 1.41 0.82 1.92 1.41 0.5 0.59 0.88 1.29 1.13 2.1 0.24 0.81 0.37 1.66 0.37 2.54 0 0.74-0.05 1.4-0.16 1.99l-2.06 13.21h-4.57l1.8-11.67c0.05-0.35 0.09-0.7 0.13-1.06 0.04-0.35 0.06-0.7 0.06-1.06 0-0.94-0.22-1.77-0.66-2.49s-1.25-1.09-2.42-1.09c-0.76 0-1.42 0.17-1.99 0.49-0.57 0.33-1.07 0.76-1.5 1.31-0.43 0.54-0.78 1.15-1.05 1.83-0.28 0.68-0.47 1.37-0.57 2.07l-1.83 11.67h-4.57l2.58-16.66c0.1-0.55 0.21-1.28 0.33-2.16 0.12-0.89 0.2-1.68 0.25-2.39h4.29c-0.02 0.33-0.07 0.84-0.15 1.53s-0.15 1.29-0.2 1.79h0.08z" fill="#8CC63F"/>
 <path d="m156.46 161.92c0.06-0.36 0.09-0.63 0.1-0.82s0.02-0.38 0.02-0.55c0-1.03-0.29-1.77-0.88-2.21-0.58-0.44-1.45-0.66-2.59-0.66-0.91 0-1.85 0.2-2.83 0.59-0.97 0.4-1.84 0.91-2.59 1.53l-1.76-3.49c1.07-0.85 2.28-1.53 3.65-2.01 1.36-0.49 2.76-0.73 4.19-0.73 0.88 0 1.76 0.11 2.63 0.33s1.66 0.58 2.34 1.08c0.69 0.5 1.24 1.16 1.66 1.97s0.63 1.82 0.63 3.02c0 0.27-0.02 0.59-0.04 0.98-0.03 0.38-0.07 0.72-0.12 1.01l-1.37 8.61c-0.13 0.83-0.24 1.68-0.33 2.57-0.09 0.88-0.13 1.62-0.13 2.2h-4.22c0-0.79 0.08-1.63 0.24-2.52h-0.08c-1.46 1.98-3.48 2.97-6.08 2.97-0.65 0-1.33-0.09-2.03-0.27-0.71-0.18-1.34-0.48-1.91-0.91-0.58-0.42-1.04-0.99-1.41-1.72-0.36-0.72-0.55-1.63-0.55-2.71 0-1.74 0.41-3.15 1.23-4.22 0.82-1.08 1.88-1.92 3.18-2.52s2.75-1.01 4.35-1.22c1.6-0.2 3.17-0.3 4.7-0.3zm-0.97 3.71c-0.89 0-1.8 0.03-2.75 0.11-0.95 0.07-1.82 0.24-2.62 0.51-0.79 0.26-1.44 0.64-1.95 1.12-0.5 0.49-0.76 1.14-0.76 1.97 0 0.5 0.09 0.92 0.26 1.26s0.39 0.61 0.68 0.81c0.29 0.21 0.61 0.36 0.97 0.45 0.37 0.08 0.75 0.13 1.14 0.13 0.7 0 1.35-0.13 1.96-0.4 0.62-0.27 1.15-0.63 1.6-1.08 0.46-0.46 0.83-0.99 1.14-1.59 0.29-0.6 0.51-1.26 0.64-1.97l0.23-1.32h-0.54z" fill="#8CC63F"/>
 <path d="m196.28 175.35h-4.91l-3.67-21.21h4.8l2.18 15.55h0.08l7.8-15.55h4.84l-11.12 21.21z" fill="#8CC63F"/>
 <path d="m218.24 166.38c-0.03 0.15-0.04 0.31-0.04 0.48 0 0.71 0.12 1.36 0.37 1.95s0.59 1.1 1.03 1.52c0.44 0.43 0.97 0.77 1.56 1.02 0.6 0.25 1.25 0.37 1.96 0.37 1.19 0 2.21-0.25 3.06-0.75 0.84-0.5 1.6-1.17 2.28-2.03l2.61 2.78c-2.31 2.83-5.13 4.25-8.46 4.25-1.28 0-2.45-0.22-3.51-0.65-1.07-0.42-1.99-1.03-2.77-1.83-0.78-0.79-1.39-1.77-1.83-2.93-0.45-1.17-0.67-2.5-0.67-4 0-1.83 0.28-3.53 0.82-5.11 0.55-1.57 1.31-2.95 2.28-4.12 0.98-1.18 2.13-2.1 3.47-2.77 1.34-0.66 2.8-0.99 4.39-0.99 1.12 0 2.15 0.18 3.1 0.53 0.95 0.36 1.78 0.88 2.48 1.59s1.25 1.59 1.64 2.65 0.58 2.3 0.58 3.71c0 0.47-0.04 1.13-0.11 1.97-0.08 0.84-0.2 1.62-0.36 2.36h-13.88zm10.14-3.71c0.03-0.21 0.04-0.4 0.06-0.58 0.01-0.17 0.02-0.35 0.02-0.53 0-1.14-0.36-2.12-1.07-2.91-0.72-0.8-1.73-1.19-3.03-1.19-0.8 0-1.53 0.16-2.18 0.48-0.65 0.33-1.22 0.75-1.7 1.26-0.48 0.52-0.88 1.08-1.19 1.7s-0.52 1.21-0.62 1.77h9.71z" fill="#8CC63F"/>
 <path d="m259.58 157.37l0.47-3.23h4.36l-2.96 19.4c-0.29 1.85-0.7 3.54-1.25 5.07-0.55 1.54-1.27 2.85-2.18 3.93-0.92 1.1-2.05 1.94-3.4 2.52-1.35 0.59-2.97 0.89-4.87 0.89-0.78 0-1.59-0.08-2.42-0.25-0.83-0.16-1.65-0.4-2.46-0.73-0.8-0.32-1.56-0.72-2.28-1.19-0.71-0.47-1.33-1.01-1.85-1.63l3.04-3.76c0.73 0.97 1.62 1.73 2.69 2.26s2.2 0.79 3.39 0.79c1.15 0 2.12-0.18 2.91-0.55s1.47-0.88 2.01-1.53 0.97-1.43 1.29-2.33c0.31-0.9 0.57-1.89 0.78-2.95l0.31-1.69h-0.08c-0.68 1.02-1.57 1.83-2.67 2.44-1.11 0.61-2.36 0.91-3.77 0.91-1.19 0-2.28-0.22-3.25-0.66-0.98-0.44-1.81-1.06-2.5-1.86-0.69-0.79-1.22-1.75-1.6-2.87-0.37-1.11-0.56-2.35-0.56-3.71 0-1.79 0.25-3.49 0.76-5.08s1.21-2.98 2.13-4.17c0.9-1.19 1.99-2.13 3.25-2.81 1.26-0.67 2.65-1.01 4.15-1.01 1.72 0 3.1 0.35 4.14 1.06s1.8 1.62 2.3 2.74h0.12zm-12.17 8.63c0 1.56 0.4 2.86 1.19 3.92s1.93 1.58 3.41 1.58c0.91 0 1.77-0.22 2.58-0.66 0.8-0.44 1.5-1.04 2.08-1.8 0.59-0.76 1.05-1.65 1.39-2.64 0.34-1 0.5-2.06 0.5-3.18 0-1.61-0.43-2.93-1.28-3.96-0.86-1.02-2.02-1.54-3.48-1.54-0.96 0-1.83 0.22-2.63 0.66-0.79 0.44-1.47 1.04-2.03 1.79-0.56 0.74-0.98 1.62-1.28 2.61-0.3 1-0.45 2.08-0.45 3.22z" fill="#8CC63F"/>
 <path d="m278.14 166.38c-0.02 0.15-0.04 0.31-0.04 0.48 0 0.71 0.13 1.36 0.37 1.95 0.25 0.59 0.59 1.1 1.04 1.52 0.44 0.43 0.96 0.77 1.56 1.02s1.25 0.37 1.95 0.37c1.2 0 2.22-0.25 3.06-0.75 0.85-0.5 1.61-1.17 2.28-2.03l2.62 2.78c-2.32 2.83-5.14 4.25-8.47 4.25-1.27 0-2.44-0.22-3.51-0.65-1.06-0.42-1.99-1.03-2.77-1.83-0.78-0.79-1.39-1.77-1.83-2.93-0.44-1.17-0.66-2.5-0.66-4 0-1.83 0.27-3.53 0.82-5.11 0.54-1.57 1.3-2.95 2.28-4.12 0.97-1.18 2.13-2.1 3.47-2.77 1.34-0.66 2.8-0.99 4.39-0.99 1.12 0 2.15 0.18 3.1 0.53 0.94 0.36 1.77 0.88 2.47 1.59 0.71 0.71 1.25 1.59 1.64 2.65s0.59 2.3 0.59 3.71c0 0.47-0.04 1.13-0.12 1.97s-0.2 1.62-0.35 2.36h-13.89zm10.14-3.71c0.03-0.21 0.05-0.4 0.06-0.58 0.01-0.17 0.02-0.35 0.02-0.53 0-1.14-0.36-2.12-1.07-2.91-0.72-0.8-1.72-1.19-3.02-1.19-0.81 0-1.54 0.16-2.19 0.48-0.65 0.33-1.21 0.75-1.69 1.26-0.49 0.52-0.88 1.08-1.19 1.7-0.32 0.62-0.52 1.21-0.63 1.77h9.71z" fill="#8CC63F"/>
 <path d="m302.05 158.39l0.66-4.25h3.24l0.94-6.18h4.52l-0.93 6.18h4.2l-0.66 4.25h-4.13l-1.64 9.91c-0.08 0.44-0.12 0.85-0.12 1.23 0 0.76 0.21 1.29 0.61 1.58s0.94 0.44 1.62 0.44c0.31 0 0.62-0.03 0.91-0.08 0.3-0.05 0.58-0.11 0.84-0.19l-0.27 3.94c-0.39 0.17-0.85 0.31-1.38 0.41-0.54 0.11-1.03 0.16-1.47 0.16-1.97 0-3.38-0.45-4.21-1.35-0.83-0.89-1.25-2.07-1.25-3.54 0-0.41 0.02-0.86 0.06-1.35 0.04-0.48 0.1-0.93 0.18-1.34l1.6-9.82h-3.32z" fill="#8CC63F"/>
 <path d="m335.12 161.92c0.06-0.36 0.09-0.63 0.1-0.82s0.02-0.38 0.02-0.55c0-1.03-0.29-1.77-0.88-2.21-0.58-0.44-1.44-0.66-2.59-0.66-0.91 0-1.85 0.2-2.83 0.59-0.97 0.4-1.84 0.91-2.59 1.53l-1.75-3.49c1.06-0.85 2.28-1.53 3.64-2.01 1.37-0.49 2.76-0.73 4.19-0.73 0.89 0 1.77 0.11 2.64 0.33s1.65 0.58 2.34 1.08 1.24 1.16 1.65 1.97c0.42 0.81 0.63 1.82 0.63 3.02 0 0.27-0.01 0.59-0.04 0.98-0.03 0.38-0.07 0.72-0.12 1.01l-1.36 8.61c-0.13 0.83-0.24 1.68-0.33 2.57-0.1 0.88-0.14 1.62-0.14 2.2h-4.22c0-0.79 0.08-1.63 0.24-2.52h-0.08c-1.45 1.98-3.48 2.97-6.08 2.97-0.65 0-1.33-0.09-2.03-0.27s-1.34-0.48-1.91-0.91c-0.57-0.42-1.04-0.99-1.4-1.72-0.37-0.72-0.55-1.63-0.55-2.71 0-1.74 0.41-3.15 1.23-4.22 0.82-1.08 1.88-1.92 3.18-2.52s2.74-1.01 4.34-1.22c1.6-0.2 3.17-0.3 4.7-0.3zm-0.97 3.71c-0.89 0-1.8 0.03-2.75 0.11-0.95 0.07-1.82 0.24-2.61 0.51-0.8 0.26-1.45 0.64-1.95 1.12-0.51 0.49-0.76 1.14-0.76 1.97 0 0.5 0.08 0.92 0.25 1.26s0.4 0.61 0.68 0.81c0.29 0.21 0.61 0.36 0.98 0.45 0.36 0.08 0.74 0.13 1.13 0.13 0.7 0 1.36-0.13 1.97-0.4s1.14-0.63 1.6-1.08c0.45-0.46 0.83-0.99 1.13-1.59s0.51-1.26 0.64-1.97l0.24-1.32h-0.55z" fill="#8CC63F"/>
 <path d="m356.77 157.68c0.65-1.24 1.42-2.23 2.3-2.98s1.95-1.13 3.2-1.13c0.18 0 0.37 0.01 0.58 0.02 0.21 0.02 0.39 0.05 0.55 0.11l-0.63 4.82c-0.28-0.09-0.53-0.15-0.76-0.18-0.22-0.03-0.43-0.04-0.64-0.04-1.07 0-1.94 0.22-2.61 0.66-0.68 0.44-1.22 0.97-1.64 1.59s-0.72 1.25-0.9 1.9-0.3 1.16-0.35 1.55l-1.75 11.35h-4.57l2.62-16.66c0.1-0.55 0.21-1.28 0.33-2.16s0.2-1.68 0.25-2.39h4.29c0 0.15-0.01 0.37-0.04 0.67-0.02 0.29-0.05 0.62-0.09 0.97s-0.08 0.7-0.12 1.04-0.07 0.62-0.1 0.86h0.08z" fill="#8CC63F"/>
 <path d="m369.52 175.35l3.28-21.21h4.6l-3.31 21.21h-4.57zm9.4-28.49c0 0.85-0.26 1.6-0.8 2.25-0.53 0.65-1.19 0.97-1.96 0.97-0.76 0-1.4-0.26-1.94-0.8-0.53-0.53-0.8-1.28-0.8-2.25 0-0.94 0.29-1.71 0.86-2.32 0.58-0.6 1.24-0.91 1.99-0.91 0.76 0 1.39 0.28 1.89 0.82 0.51 0.55 0.76 1.29 0.76 2.24z" fill="#8CC63F"/>
 <path d="m399.67 161.92c0.05-0.36 0.08-0.63 0.1-0.82 0.01-0.19 0.02-0.38 0.02-0.55 0-1.03-0.29-1.77-0.88-2.21s-1.45-0.66-2.59-0.66c-0.91 0-1.86 0.2-2.83 0.59-0.97 0.4-1.84 0.91-2.59 1.53l-1.76-3.49c1.07-0.85 2.28-1.53 3.65-2.01 1.36-0.49 2.76-0.73 4.19-0.73 0.88 0 1.76 0.11 2.63 0.33s1.65 0.58 2.34 1.08 1.24 1.16 1.66 1.97c0.41 0.81 0.62 1.82 0.62 3.02 0 0.27-0.01 0.59-0.04 0.98-0.02 0.38-0.06 0.72-0.11 1.01l-1.37 8.61c-0.13 0.83-0.24 1.68-0.33 2.57-0.09 0.88-0.14 1.62-0.14 2.2h-4.21c0-0.79 0.08-1.63 0.23-2.52h-0.07c-1.46 1.98-3.49 2.97-6.09 2.97-0.64 0-1.32-0.09-2.02-0.27s-1.34-0.48-1.92-0.91c-0.57-0.42-1.04-0.99-1.4-1.72-0.36-0.72-0.54-1.63-0.54-2.71 0-1.74 0.4-3.15 1.22-4.22 0.82-1.08 1.88-1.92 3.18-2.52s2.75-1.01 4.35-1.22c1.6-0.2 3.17-0.3 4.7-0.3zm-0.97 3.71c-0.89 0-1.8 0.03-2.75 0.11-0.95 0.07-1.82 0.24-2.62 0.51-0.79 0.26-1.44 0.64-1.95 1.12-0.5 0.49-0.76 1.14-0.76 1.97 0 0.5 0.08 0.92 0.26 1.26 0.16 0.34 0.39 0.61 0.68 0.81 0.28 0.21 0.61 0.36 0.97 0.45 0.37 0.08 0.74 0.13 1.13 0.13 0.71 0 1.36-0.13 1.97-0.4s1.15-0.63 1.6-1.08c0.46-0.46 0.83-0.99 1.13-1.59s0.52-1.26 0.65-1.97l0.23-1.32h-0.54z" fill="#8CC63F"/>
 <path d="m421.4 157.46c0.64-1.15 1.47-2.08 2.47-2.81 1-0.72 2.2-1.08 3.61-1.08 1.04 0 1.94 0.17 2.71 0.53 0.77 0.35 1.4 0.82 1.91 1.41s0.89 1.29 1.13 2.1c0.25 0.81 0.37 1.66 0.37 2.54 0 0.74-0.05 1.4-0.16 1.99l-2.06 13.21h-4.56l1.79-11.67c0.05-0.35 0.1-0.7 0.14-1.06 0.04-0.35 0.05-0.7 0.05-1.06 0-0.94-0.22-1.77-0.66-2.49s-1.25-1.09-2.42-1.09c-0.75 0-1.41 0.17-1.98 0.49-0.58 0.33-1.08 0.76-1.51 1.31-0.43 0.54-0.77 1.15-1.05 1.83-0.27 0.68-0.46 1.37-0.57 2.07l-1.83 11.67h-4.56l2.57-16.66c0.11-0.55 0.22-1.28 0.33-2.16 0.12-0.89 0.2-1.68 0.26-2.39h4.29c-0.03 0.33-0.08 0.84-0.16 1.53s-0.14 1.29-0.19 1.79h0.08z" fill="#8CC63F"/>
 <path d="m456.73 161.92c0.05-0.36 0.08-0.63 0.09-0.82 0.02-0.19 0.03-0.38 0.03-0.55 0-1.03-0.3-1.77-0.88-2.21-0.59-0.44-1.45-0.66-2.6-0.66-0.91 0-1.85 0.2-2.82 0.59-0.98 0.4-1.84 0.91-2.6 1.53l-1.75-3.49c1.06-0.85 2.28-1.53 3.64-2.01 1.37-0.49 2.77-0.73 4.2-0.73 0.88 0 1.76 0.11 2.63 0.33s1.65 0.58 2.34 1.08 1.24 1.16 1.66 1.97c0.41 0.81 0.62 1.82 0.62 3.02 0 0.27-0.01 0.59-0.04 0.98-0.02 0.38-0.06 0.72-0.11 1.01l-1.37 8.61c-0.13 0.83-0.24 1.68-0.33 2.57-0.09 0.88-0.14 1.62-0.14 2.2h-4.21c0-0.79 0.08-1.63 0.23-2.52h-0.07c-1.46 1.98-3.49 2.97-6.09 2.97-0.65 0-1.32-0.09-2.03-0.27-0.7-0.18-1.34-0.48-1.91-0.91-0.57-0.42-1.04-0.99-1.4-1.72-0.36-0.72-0.55-1.63-0.55-2.71 0-1.74 0.41-3.15 1.23-4.22 0.82-1.08 1.88-1.92 3.18-2.52s2.75-1.01 4.35-1.22c1.6-0.2 3.16-0.3 4.7-0.3zm-0.98 3.71c-0.88 0-1.8 0.03-2.75 0.11-0.95 0.07-1.82 0.24-2.61 0.51-0.79 0.26-1.44 0.64-1.95 1.12-0.51 0.49-0.76 1.14-0.76 1.97 0 0.5 0.08 0.92 0.25 1.26s0.4 0.61 0.69 0.81c0.28 0.21 0.61 0.36 0.97 0.45 0.36 0.08 0.74 0.13 1.13 0.13 0.7 0 1.36-0.13 1.97-0.4s1.14-0.63 1.6-1.08c0.45-0.46 0.83-0.99 1.13-1.59s0.51-1.26 0.64-1.97l0.24-1.32h-0.55z" fill="#8CC63F"/>
 <path d="m494.75 179.94c-0.47 0.94-0.93 1.79-1.4 2.54s-0.98 1.38-1.54 1.9c-0.56 0.51-1.18 0.9-1.86 1.17-0.67 0.26-1.46 0.4-2.37 0.4-0.4 0-0.79-0.03-1.19-0.07-0.41-0.04-0.8-0.12-1.19-0.24l0.58-4.51c0.29 0.12 0.58 0.2 0.88 0.24 0.3 0.05 0.58 0.07 0.84 0.07 0.86 0 1.52-0.27 2-0.81 0.49-0.55 1.01-1.38 1.59-2.5l1.4-2.74-4.21-21.25h4.91l2.42 15.55h0.07l7.49-15.55h4.84l-13.26 25.8z" fill="#8CC63F"/>
 <path d="m539.29 175.35h-4.91l-3.67-21.21h4.8l2.18 15.55h0.08l7.8-15.55h4.83l-11.11 21.21z" fill="#8CC63F"/>
 <path d="m561.25 166.38c-0.03 0.15-0.04 0.31-0.04 0.48 0 0.71 0.12 1.36 0.37 1.95s0.59 1.1 1.03 1.52c0.44 0.43 0.97 0.77 1.56 1.02 0.6 0.25 1.25 0.37 1.95 0.37 1.2 0 2.22-0.25 3.06-0.75 0.85-0.5 1.61-1.17 2.29-2.03l2.61 2.78c-2.31 2.83-5.13 4.25-8.46 4.25-1.28 0-2.45-0.22-3.51-0.65-1.07-0.42-1.99-1.03-2.77-1.83-0.78-0.79-1.4-1.77-1.84-2.93-0.44-1.17-0.66-2.5-0.66-4 0-1.83 0.27-3.53 0.82-5.11 0.55-1.57 1.31-2.95 2.28-4.12 0.98-1.18 2.13-2.1 3.47-2.77 1.34-0.66 2.8-0.99 4.39-0.99 1.12 0 2.15 0.18 3.1 0.53 0.95 0.36 1.78 0.88 2.48 1.59s1.25 1.59 1.64 2.65 0.58 2.3 0.58 3.71c0 0.47-0.04 1.13-0.12 1.97-0.07 0.84-0.19 1.62-0.35 2.36h-13.88zm10.14-3.71c0.02-0.21 0.04-0.4 0.05-0.58 0.02-0.17 0.03-0.35 0.03-0.53 0-1.14-0.36-2.12-1.08-2.91-0.71-0.8-1.72-1.19-3.02-1.19-0.8 0-1.53 0.16-2.18 0.48-0.65 0.33-1.22 0.75-1.7 1.26-0.48 0.52-0.88 1.08-1.19 1.7s-0.52 1.21-0.62 1.77h9.71z" fill="#8CC63F"/>
 <path d="m602.59 157.37l0.47-3.23h4.36l-2.96 19.4c-0.28 1.85-0.7 3.54-1.25 5.07-0.55 1.54-1.27 2.85-2.18 3.93-0.91 1.1-2.05 1.94-3.4 2.52-1.35 0.59-2.97 0.89-4.87 0.89-0.78 0-1.59-0.08-2.42-0.25-0.83-0.16-1.65-0.4-2.46-0.73-0.8-0.32-1.56-0.72-2.28-1.19-0.71-0.47-1.33-1.01-1.85-1.63l3.04-3.76c0.73 0.97 1.63 1.73 2.69 2.26 1.07 0.53 2.2 0.79 3.4 0.79 1.14 0 2.11-0.18 2.9-0.55s1.46-0.88 2.01-1.53c0.54-0.65 0.97-1.43 1.29-2.33 0.31-0.9 0.57-1.89 0.78-2.95l0.31-1.69h-0.08c-0.68 1.02-1.57 1.83-2.67 2.44-1.11 0.61-2.36 0.91-3.76 0.91-1.2 0-2.28-0.22-3.26-0.66s-1.81-1.06-2.5-1.86c-0.68-0.79-1.22-1.75-1.6-2.87-0.37-1.11-0.56-2.35-0.56-3.71 0-1.79 0.25-3.49 0.76-5.08s1.22-2.98 2.13-4.17 1.99-2.13 3.25-2.81c1.26-0.67 2.65-1.01 4.16-1.01 1.71 0 3.09 0.35 4.13 1.06s1.81 1.62 2.3 2.74h0.12zm-12.17 8.63c0 1.56 0.4 2.86 1.19 3.92s1.93 1.58 3.41 1.58c0.91 0 1.77-0.22 2.58-0.66 0.8-0.44 1.5-1.04 2.08-1.8 0.59-0.76 1.05-1.65 1.39-2.64 0.33-1 0.51-2.06 0.51-3.18 0-1.61-0.43-2.93-1.29-3.96-0.86-1.02-2.02-1.54-3.47-1.54-0.97 0-1.84 0.22-2.64 0.66-0.79 0.44-1.46 1.04-2.02 1.79-0.56 0.74-0.99 1.62-1.29 2.61-0.3 1-0.45 2.08-0.45 3.22z" fill="#8CC63F"/>
 <path d="m629.62 161.92c0.05-0.36 0.08-0.63 0.09-0.82 0.02-0.19 0.02-0.38 0.02-0.55 0-1.03-0.29-1.77-0.87-2.21-0.59-0.44-1.45-0.66-2.6-0.66-0.91 0-1.85 0.2-2.82 0.59-0.98 0.4-1.84 0.91-2.6 1.53l-1.75-3.49c1.06-0.85 2.28-1.53 3.64-2.01 1.37-0.49 2.77-0.73 4.2-0.73 0.88 0 1.76 0.11 2.63 0.33s1.65 0.58 2.34 1.08 1.24 1.16 1.65 1.97c0.42 0.81 0.63 1.82 0.63 3.02 0 0.27-0.02 0.59-0.04 0.98-0.02 0.38-0.07 0.72-0.12 1.01l-1.36 8.61c-0.13 0.83-0.24 1.68-0.33 2.57-0.09 0.88-0.14 1.62-0.14 2.2h-4.21c0-0.79 0.08-1.63 0.23-2.52h-0.07c-1.46 1.98-3.49 2.97-6.09 2.97-0.65 0-1.33-0.09-2.03-0.27s-1.34-0.48-1.91-0.91c-0.57-0.42-1.04-0.99-1.4-1.72-0.37-0.72-0.55-1.63-0.55-2.71 0-1.74 0.41-3.15 1.23-4.22 0.82-1.08 1.88-1.92 3.18-2.52s2.75-1.01 4.35-1.22c1.6-0.2 3.16-0.3 4.7-0.3zm-0.98 3.71c-0.88 0-1.8 0.03-2.75 0.11-0.95 0.07-1.82 0.24-2.61 0.51-0.79 0.26-1.44 0.64-1.95 1.12-0.51 0.49-0.76 1.14-0.76 1.97 0 0.5 0.08 0.92 0.25 1.26s0.4 0.61 0.68 0.81c0.29 0.21 0.62 0.36 0.98 0.45 0.36 0.08 0.74 0.13 1.13 0.13 0.7 0 1.36-0.13 1.97-0.4s1.14-0.63 1.6-1.08c0.45-0.46 0.83-0.99 1.13-1.59s0.51-1.26 0.64-1.97l0.24-1.32h-0.55z" fill="#8CC63F"/>
 <path d="m651.34 157.46c0.65-1.15 1.47-2.08 2.48-2.81 1-0.72 2.2-1.08 3.6-1.08 1.04 0 1.95 0.17 2.72 0.53 0.76 0.35 1.4 0.82 1.91 1.41s0.88 1.29 1.13 2.1c0.24 0.81 0.37 1.66 0.37 2.54 0 0.74-0.05 1.4-0.16 1.99l-2.07 13.21h-4.56l1.8-11.67c0.05-0.35 0.09-0.7 0.13-1.06 0.04-0.35 0.06-0.7 0.06-1.06 0-0.94-0.22-1.77-0.66-2.49s-1.25-1.09-2.42-1.09c-0.75 0-1.42 0.17-1.99 0.49-0.57 0.33-1.07 0.76-1.5 1.31-0.43 0.54-0.78 1.15-1.05 1.83-0.28 0.68-0.47 1.37-0.57 2.07l-1.83 11.67h-4.56l2.57-16.66c0.1-0.55 0.21-1.28 0.33-2.16 0.12-0.89 0.2-1.68 0.25-2.39h4.3c-0.03 0.33-0.08 0.84-0.16 1.53s-0.15 1.29-0.2 1.79h0.08z" fill="#8CC63F"/>
 <path d="m686.67 161.92c0.06-0.36 0.09-0.63 0.1-0.82s0.02-0.38 0.02-0.55c0-1.03-0.29-1.77-0.88-2.21-0.58-0.44-1.45-0.66-2.59-0.66-0.91 0-1.85 0.2-2.83 0.59-0.97 0.4-1.84 0.91-2.59 1.53l-1.76-3.49c1.07-0.85 2.29-1.53 3.65-2.01 1.37-0.49 2.76-0.73 4.19-0.73 0.89 0 1.77 0.11 2.64 0.33s1.65 0.58 2.34 1.08c0.68 0.5 1.24 1.16 1.65 1.97 0.42 0.81 0.63 1.82 0.63 3.02 0 0.27-0.02 0.59-0.04 0.98-0.03 0.38-0.07 0.72-0.12 1.01l-1.36 8.61c-0.13 0.83-0.24 1.68-0.33 2.57-0.1 0.88-0.14 1.62-0.14 2.2h-4.21c0-0.79 0.08-1.63 0.23-2.52h-0.08c-1.45 1.98-3.48 2.97-6.08 2.97-0.65 0-1.33-0.09-2.03-0.27s-1.34-0.48-1.91-0.91c-0.57-0.42-1.04-0.99-1.4-1.72-0.37-0.72-0.55-1.63-0.55-2.71 0-1.74 0.41-3.15 1.23-4.22 0.82-1.08 1.88-1.92 3.18-2.52s2.75-1.01 4.35-1.22c1.59-0.2 3.16-0.3 4.69-0.3zm-0.97 3.71c-0.88 0-1.8 0.03-2.75 0.11-0.95 0.07-1.82 0.24-2.61 0.51-0.8 0.26-1.45 0.64-1.96 1.12-0.5 0.49-0.76 1.14-0.76 1.97 0 0.5 0.09 0.92 0.26 1.26s0.39 0.61 0.68 0.81c0.29 0.21 0.61 0.36 0.98 0.45 0.36 0.08 0.74 0.13 1.13 0.13 0.7 0 1.35-0.13 1.97-0.4 0.61-0.27 1.14-0.63 1.6-1.08 0.45-0.46 0.83-0.99 1.13-1.59s0.51-1.26 0.64-1.97l0.23-1.32h-0.54z" fill="#8CC63F"/>
 <path d="m295.37 48.678c-1.68 2.457-3.31 5.048-4.85 7.705-7.4 12.753-12.58 26.811-15.39 41.804l30.65-51.401c-3.4 1.21-6.9 1.846-10.41 1.892z" fill="#fff"/>
 <path d="m39.923 58.466c-1.089-1.739-2.514-3.017-4.28-3.831-1.767-0.815-3.683-1.223-5.748-1.223-1.034 0-2.176 0.163-3.425 0.489-1.25 0.326-2.405 0.829-3.464 1.508-1.062 0.681-1.945 1.59-2.651 2.732-0.707 1.141-1.06 2.527-1.06 4.157 0 2.066 0.719 3.668 2.16 4.81 1.44 1.141 3.384 2.174 5.829 3.097 5.055 1.848 8.941 4.063 11.66 6.644 2.717 2.581 4.076 6.073 4.076 10.475 0 3.315-0.652 6.143-1.957 8.478-1.303 2.336-3.016 4.238-5.136 5.708-2.12 1.46-4.512 2.54-7.175 3.22-2.664 0.68-5.354 1.02-8.072 1.02-1.902 0-3.819-0.19-5.747-0.58-1.93-0.38-3.765-0.95-5.5036-1.71-1.7396-0.76-3.3569-1.72-4.8508-2.89-1.495-1.169-2.759-2.569-3.7919-4.199l8.1535-5.625c1.0868 1.903 2.7318 3.465 4.9318 4.688 2.202 1.221 4.634 1.833 7.298 1.833 1.358 0 2.703-0.163 4.036-0.489 1.331-0.325 2.528-0.856 3.587-1.59 1.059-0.733 1.929-1.683 2.609-2.854 0.68-1.167 1.02-2.62 1.02-4.36 0-1.304-0.286-2.459-0.856-3.464-0.571-1.006-1.333-1.889-2.284-2.65-0.952-0.76-2.052-1.439-3.302-2.037-1.252-0.597-2.584-1.141-3.995-1.631-1.742-0.652-3.384-1.386-4.932-2.2-1.55-0.815-2.923-1.806-4.118-2.974-1.196-1.169-2.134-2.57-2.812-4.199-0.6811-1.631-1.0198-3.559-1.0198-5.788 0-2.879 0.6116-5.433 1.8348-7.662 1.223-2.228 2.839-4.103 4.851-5.625 2.01-1.522 4.334-2.677 6.971-3.464 2.635-0.788 5.367-1.183 8.193-1.183 1.468 0 2.975 0.164 4.526 0.489 1.549 0.326 3.043 0.803 4.483 1.427 1.44 0.626 2.799 1.401 4.078 2.324 1.275 0.924 2.35 2.011 3.22 3.26l-7.337 5.869z" fill="#fff"/>
 <path stroke="#fff" stroke-width=".1746" stroke-miterlimit="10" d="m39.923 58.466c-1.089-1.739-2.514-3.017-4.28-3.831-1.767-0.815-3.683-1.223-5.748-1.223-1.034 0-2.176 0.163-3.425 0.489-1.25 0.326-2.405 0.829-3.464 1.508-1.062 0.681-1.945 1.59-2.651 2.732-0.707 1.141-1.06 2.527-1.06 4.157 0 2.066 0.719 3.668 2.16 4.81 1.44 1.141 3.384 2.174 5.829 3.097 5.055 1.848 8.941 4.063 11.66 6.644 2.717 2.581 4.076 6.073 4.076 10.475 0 3.315-0.652 6.143-1.957 8.478-1.303 2.336-3.016 4.238-5.136 5.708-2.12 1.46-4.512 2.54-7.175 3.22-2.664 0.68-5.354 1.02-8.072 1.02-1.902 0-3.819-0.19-5.747-0.58-1.93-0.38-3.765-0.95-5.5036-1.71-1.7396-0.76-3.3569-1.72-4.8508-2.89-1.495-1.169-2.759-2.569-3.7919-4.199l8.1535-5.625c1.0868 1.903 2.7318 3.465 4.9318 4.688 2.202 1.221 4.634 1.833 7.298 1.833 1.358 0 2.703-0.163 4.036-0.489 1.331-0.325 2.528-0.856 3.587-1.59 1.059-0.733 1.929-1.683 2.609-2.854 0.68-1.167 1.02-2.62 1.02-4.36 0-1.304-0.286-2.459-0.856-3.464-0.571-1.006-1.333-1.889-2.284-2.65-0.952-0.76-2.052-1.439-3.302-2.037-1.252-0.597-2.584-1.141-3.995-1.631-1.742-0.652-3.384-1.386-4.932-2.2-1.55-0.815-2.923-1.806-4.118-2.974-1.196-1.169-2.134-2.57-2.812-4.199-0.6811-1.631-1.0198-3.559-1.0198-5.788 0-2.879 0.6116-5.433 1.8348-7.662 1.223-2.228 2.839-4.103 4.851-5.625 2.01-1.522 4.334-2.677 6.971-3.464 2.635-0.788 5.367-1.183 8.193-1.183 1.468 0 2.975 0.164 4.526 0.489 1.549 0.326 3.043 0.803 4.483 1.427 1.44 0.626 2.799 1.401 4.078 2.324 1.275 0.924 2.35 2.011 3.22 3.26l-7.337 5.869z"/>
 <path d="m76.693 98.164c-1.36 2.116-3.086 3.846-5.178 5.176-2.093 1.33-4.606 2-7.542 2-2.174 0-4.063-0.33-5.667-0.98s-2.935-1.52-3.995-2.61-1.849-2.376-2.365-3.871c-0.517-1.494-0.774-3.057-0.774-4.689 0-1.357 0.108-2.58 0.327-3.667l4.321-24.373h9.538l-3.751 21.52c-0.11 0.652-0.204 1.304-0.285 1.956-0.082 0.652-0.122 1.304-0.122 1.956 0 1.741 0.46 3.275 1.386 4.606 0.923 1.334 2.608 1.997 5.054 1.997 1.522 0 2.894-0.297 4.117-0.895 1.223-0.597 2.284-1.399 3.181-2.407 0.897-1.004 1.63-2.131 2.2-3.381 0.571-1.25 0.965-2.527 1.183-3.831l3.831-21.52h9.539l-5.381 30.732c-0.219 1.033-0.449 2.364-0.693 3.994-0.245 1.633-0.423 3.093-0.53 4.403h-8.969c0.053-0.6 0.164-1.54 0.327-2.81 0.163-1.28 0.298-2.379 0.407-3.304h-0.159v-0.002z" fill="#fff"/>
 <path d="m103.6 123.76h-9.622l10.352-58.61h9.05l-0.97 6.276h0.24c1.58-2.282 3.59-4.048 6.03-5.299 2.45-1.249 5.14-1.874 8.08-1.874 2.5 0 4.76 0.408 6.8 1.223s3.78 1.97 5.22 3.465 2.56 3.275 3.34 5.339c0.79 2.067 1.19 4.348 1.19 6.847 0 3.371-0.53 6.522-1.59 9.457-1.06 2.936-2.55 5.503-4.45 7.704-1.9 2.202-4.17 3.942-6.81 5.212-2.63 1.28-5.53 1.92-8.68 1.92-3.59 0-6.48-0.66-8.68-1.98s-3.88-3.13-5.02-5.435h-0.16l-4.32 25.755zm29.92-41.524c0-2.871-0.83-5.282-2.48-7.232-1.66-1.95-4.04-2.926-7.14-2.926-1.9 0-3.7 0.406-5.38 1.219-1.68 0.812-3.14 1.923-4.36 3.331-1.23 1.409-2.19 3.048-2.9 4.916-0.7 1.87-1.06 3.832-1.06 5.891 0 2.98 0.9 5.419 2.69 7.312 1.8 1.897 4.22 2.846 7.26 2.846 2.01 0 3.85-0.407 5.5-1.22 1.66-0.813 3.07-1.91 4.24-3.289 1.17-1.382 2.07-3.006 2.69-4.876 0.63-1.867 0.94-3.858 0.94-5.972z" fill="#fff"/>
 <path d="m159.12 87.73c-0.05 0.273-0.08 0.571-0.08 0.897 0 1.304 0.26 2.501 0.78 3.587 0.51 1.088 1.23 2.026 2.16 2.812 0.92 0.788 2.01 1.414 3.26 1.874 1.25 0.463 2.61 0.694 4.08 0.694 2.5 0 4.63-0.462 6.4-1.387 1.76-0.923 3.35-2.173 4.77-3.75l5.46 5.136c-4.84 5.217-10.74 7.827-17.69 7.827-2.67 0-5.11-0.4-7.34-1.18-2.23-0.79-4.16-1.92-5.79-3.39-1.63-1.463-2.91-3.271-3.83-5.418-0.93-2.146-1.39-4.606-1.39-7.377 0-3.37 0.57-6.507 1.71-9.415 1.14-2.907 2.74-5.448 4.77-7.622 2.04-2.173 4.46-3.873 7.26-5.096s5.85-1.834 9.17-1.834c2.34 0 4.5 0.327 6.48 0.978 1.99 0.652 3.71 1.631 5.18 2.935 1.47 1.303 2.61 2.934 3.43 4.892 0.81 1.955 1.22 4.238 1.22 6.846 0 0.87-0.08 2.079-0.25 3.628-0.16 1.549-0.4 3.003-0.73 4.362h-29.03v0.001zm21.2-6.847c0.06-0.379 0.1-0.733 0.12-1.06 0.03-0.327 0.04-0.652 0.04-0.979 0-2.118-0.74-3.912-2.24-5.379-1.49-1.467-3.6-2.2-6.32-2.2-1.68 0-3.2 0.299-4.56 0.896-1.36 0.599-2.54 1.373-3.55 2.324s-1.83 1.997-2.48 3.139c-0.66 1.141-1.09 2.228-1.31 3.26h20.3v-0.001z" fill="#fff"/>
 <path d="m210.24 71.671c1.36-2.283 2.97-4.116 4.81-5.502 1.85-1.386 4.08-2.079 6.69-2.079 0.38 0 0.79 0.015 1.22 0.042 0.44 0.028 0.82 0.095 1.14 0.204l-1.3 8.885c-0.6-0.163-1.13-0.271-1.59-0.325s-0.91-0.082-1.35-0.082c-2.23 0-4.05 0.407-5.46 1.223-1.41 0.815-2.55 1.793-3.42 2.935-0.87 1.141-1.5 2.31-1.88 3.504-0.38 1.197-0.62 2.147-0.73 2.854l-3.67 20.95h-9.54l5.46-30.733c0.22-1.031 0.45-2.364 0.7-3.993 0.24-1.63 0.42-3.098 0.52-4.402h8.97c0 0.272-0.02 0.681-0.08 1.223-0.05 0.544-0.12 1.141-0.2 1.793s-0.17 1.292-0.25 1.916c-0.08 0.625-0.15 1.155-0.2 1.588h0.16v-0.001z" fill="#fff"/>
 <path d="m308.08 87.486c-0.05 0.217-0.08 0.462-0.08 0.732 0 1.142 0.26 2.161 0.78 3.058 0.51 0.896 1.19 1.658 2.03 2.282 0.85 0.627 1.8 1.102 2.86 1.427 1.06 0.327 2.16 0.489 3.3 0.489 2.07 0 3.89-0.379 5.46-1.141 1.58-0.76 2.99-1.794 4.24-3.096l8.24 6.439c-2.61 2.774-5.52 4.774-8.73 5.994-3.2 1.22-6.66 1.83-10.35 1.83-2.83 0-5.45-0.39-7.87-1.18s-4.52-1.96-6.32-3.51c-1.79-1.545-3.21-3.46-4.24-5.742s-1.55-4.892-1.55-7.826c0-3.477 0.61-6.725 1.84-9.742 1.22-3.016 2.9-5.638 5.05-7.866 2.15-2.227 4.72-3.98 7.7-5.258 3-1.276 6.29-1.916 9.87-1.916 2.67 0 5.1 0.382 7.3 1.142 2.2 0.761 4.09 1.863 5.67 3.302 1.57 1.44 2.79 3.22 3.66 5.338 0.87 2.12 1.31 4.566 1.31 7.338 0 0.978-0.1 2.214-0.29 3.708-0.19 1.495-0.44 2.894-0.77 4.199h-29.11v-0.001zm18.51-7.989c0.05-0.271 0.08-0.543 0.08-0.814v-0.816c0-1.793-0.64-3.288-1.91-4.484-1.28-1.194-3.12-1.793-5.51-1.793-1.46 0-2.78 0.259-3.95 0.774-1.17 0.518-2.19 1.156-3.06 1.916-0.87 0.762-1.58 1.604-2.12 2.526-0.54 0.926-0.92 1.821-1.14 2.69h17.61v0.001z" fill="#fff"/>
 <path d="m379.51 69.063l0.89-5.381h12.31l-6.44 36.848c-0.65 3.75-1.63 7.08-2.93 9.99-1.31 2.9-2.99 5.33-5.06 7.29s-4.59 3.45-7.58 4.48-6.47 1.55-10.44 1.55c-1.79 0-3.63-0.15-5.5-0.45-1.88-0.3-3.71-0.73-5.5-1.3-1.8-0.57-3.5-1.28-5.1-2.12s-2.98-1.83-4.12-2.97l7.34-9.22c1.58 1.74 3.52 3.09 5.83 4.04s4.63 1.42 6.97 1.42c2.18 0 4.01-0.28 5.5-0.85 1.5-0.57 2.76-1.37 3.8-2.41 1.03-1.03 1.84-2.22 2.44-3.58s1.06-2.86 1.39-4.49l0.57-2.686h-0.25c-1.14 1.466-2.81 2.746-5.01 3.836-2.2 1.08-4.69 1.62-7.46 1.62-2.72 0-5.14-0.42-7.26-1.26s-3.91-2.01-5.38-3.504c-1.46-1.494-2.58-3.273-3.34-5.338-0.76-2.066-1.14-4.348-1.14-6.848 0-3.477 0.56-6.737 1.67-9.782 1.11-3.043 2.66-5.707 4.65-7.989 1.98-2.282 4.34-4.075 7.09-5.38 2.75-1.303 5.78-1.957 9.09-1.957 2.94 0 5.5 0.559 7.71 1.672 2.2 1.114 3.87 2.704 5.01 4.769h0.25zm-22.59 17.037c0 1.141 0.17 2.228 0.49 3.261 0.33 1.032 0.84 1.944 1.55 2.73 0.71 0.788 1.58 1.414 2.61 1.875s2.28 0.692 3.75 0.692c1.68 0 3.25-0.353 4.69-1.06 1.44-0.706 2.68-1.671 3.71-2.894s1.83-2.609 2.4-4.157 0.86-3.192 0.86-4.932c0-2.607-0.78-4.687-2.32-6.235-1.55-1.55-3.63-2.323-6.24-2.323-1.8 0-3.4 0.353-4.81 1.06-1.42 0.708-2.61 1.659-3.59 2.853-0.98 1.196-1.74 2.582-2.28 4.157-0.55 1.577-0.82 3.233-0.82 4.973z" fill="#fff"/>
 <path d="m409.43 87.486c-0.06 0.217-0.09 0.462-0.09 0.732 0 1.142 0.26 2.161 0.78 3.058 0.52 0.896 1.2 1.658 2.04 2.282 0.84 0.627 1.79 1.102 2.85 1.427 1.07 0.327 2.17 0.489 3.31 0.489 2.06 0 3.88-0.379 5.46-1.141 1.58-0.76 2.99-1.794 4.24-3.096l8.23 6.439c-2.61 2.774-5.51 4.774-8.72 5.994s-6.66 1.83-10.35 1.83c-2.83 0-5.46-0.39-7.87-1.18-2.42-0.79-4.53-1.96-6.32-3.51-1.79-1.545-3.21-3.46-4.24-5.742s-1.55-4.892-1.55-7.826c0-3.477 0.61-6.725 1.83-9.742 1.23-3.016 2.91-5.638 5.06-7.866 2.15-2.227 4.71-3.98 7.71-5.258 2.98-1.276 6.27-1.916 9.86-1.916 2.66 0 5.1 0.382 7.3 1.142 2.2 0.761 4.09 1.863 5.66 3.302 1.58 1.44 2.8 3.22 3.67 5.338 0.87 2.12 1.31 4.566 1.31 7.338 0 0.978-0.1 2.214-0.29 3.708-0.19 1.495-0.45 2.894-0.77 4.199h-29.11v-0.001zm18.51-7.989c0.05-0.271 0.08-0.543 0.08-0.814v-0.816c0-1.793-0.64-3.288-1.92-4.484-1.28-1.194-3.11-1.793-5.5-1.793-1.47 0-2.79 0.259-3.96 0.774-1.16 0.518-2.18 1.156-3.05 1.916-0.87 0.762-1.58 1.604-2.12 2.526-0.55 0.926-0.93 1.821-1.14 2.69h17.61v0.001z" fill="#fff"/>
 <path d="m444.24 73.465l1.8-9.783h6.44l1.87-10.759h12.72l-1.87 10.759h8.64l-1.8 9.783h-8.39l-2.94 15.956c-0.05 0.381-0.09 0.778-0.12 1.186-0.03 0.41-0.04 0.751-0.04 1.023 0 1.364 0.38 2.291 1.14 2.782 0.76 0.492 1.79 0.736 3.1 0.736 0.65 0 1.29-0.054 1.91-0.164 0.63-0.109 1.19-0.216 1.68-0.325l-1.23 9.371c-0.76 0.33-1.83 0.61-3.22 0.86-1.38 0.24-2.7 0.37-3.95 0.37-3.92 0-7-0.8-9.26-2.38-2.25-1.58-3.38-4.081-3.38-7.514 0-0.654 0.04-1.403 0.12-2.247 0.08-0.845 0.21-1.648 0.37-2.411l3.1-17.244h-6.69v0.001z" fill="#fff"/>
 <path d="m514.12 75.584c0 0.762-0.04 1.577-0.13 2.445-0.08 0.87-0.2 1.711-0.36 2.528l-2.77 15.814c-0.28 1.413-0.48 2.854-0.62 4.319-0.13 1.47-0.2 2.66-0.2 3.59h-11.58c0-0.6 0.03-1.29 0.08-2.08 0.06-0.79 0.14-1.54 0.25-2.243h-0.17c-2.98 3.533-7.12 5.303-12.39 5.303-1.41 0-2.87-0.18-4.36-0.53-1.49-0.36-2.85-0.95-4.08-1.8-1.22-0.84-2.21-1.95-2.97-3.34-0.76-1.384-1.14-3.084-1.14-5.094 0-3.26 0.81-5.922 2.44-7.989 1.63-2.064 3.76-3.667 6.4-4.809 2.64-1.141 5.63-1.928 8.97-2.364 3.34-0.435 6.7-0.652 10.07-0.652 0.11-0.49 0.16-0.869 0.16-1.142v-0.734c0-1.575-0.56-2.73-1.67-3.464-1.11-0.733-2.68-1.101-4.69-1.101-1.85 0-3.71 0.354-5.58 1.061-1.88 0.707-3.58 1.63-5.1 2.772l-5.38-7.5c2.45-1.957 5.26-3.465 8.44-4.525s6.32-1.589 9.42-1.589c2.44 0 4.7 0.259 6.76 0.775 2.07 0.517 3.85 1.318 5.34 2.405 1.5 1.088 2.68 2.446 3.55 4.077 0.87 1.628 1.31 3.585 1.31 5.867zm-14.44 10.923c-1.63 0-3.28 0.07-4.97 0.204-1.68 0.136-3.19 0.422-4.53 0.856-1.33 0.436-2.43 1.033-3.3 1.794s-1.3 1.767-1.3 3.016c0 1.63 0.56 2.729 1.67 3.3s2.35 0.856 3.71 0.856c2.5 0 4.59-0.775 6.28-2.322 1.68-1.549 2.74-3.465 3.18-5.747l0.41-1.957h-1.15z" fill="#fff"/>
 <path d="m538.17 69.633c1.3-2.064 2.86-3.749 4.69-5.054 1.82-1.303 4-1.957 6.56-1.957 0.49 0 0.99 0.029 1.51 0.082 0.51 0.054 0.93 0.136 1.26 0.245l-2.12 11.575c-0.6-0.164-1.17-0.271-1.71-0.327-0.54-0.053-1.06-0.081-1.55-0.081-1.9 0-3.51 0.327-4.81 0.978-1.3 0.652-2.38 1.455-3.22 2.405-0.84 0.951-1.47 1.971-1.88 3.058-0.4 1.088-0.69 2.038-0.85 2.853l-3.67 20.87h-13.05l5.79-32.201c0.22-1.032 0.45-2.363 0.7-3.994 0.24-1.631 0.42-3.097 0.52-4.403h12.4c0 0.273-0.03 0.667-0.08 1.182-0.06 0.518-0.12 1.06-0.21 1.63-0.08 0.571-0.16 1.141-0.24 1.712-0.08 0.57-0.15 1.048-0.21 1.426h0.17v0.001z" fill="#fff"/>
 <path d="m550.48 104.28l7.09-40.598h13.13l-7.26 40.598h-12.96zm22.99-54.211c0 1.087-0.19 2.093-0.57 3.017-0.38 0.925-0.91 1.753-1.59 2.486-0.68 0.734-1.48 1.305-2.4 1.712-0.93 0.407-1.93 0.612-3.02 0.612-2.07 0-3.77-0.612-5.1-1.834-1.33-1.223-2-2.784-2-4.687 0-2.229 0.75-4.089 2.25-5.585 1.49-1.495 3.33-2.242 5.5-2.242 2.01 0 3.67 0.625 4.97 1.875 1.31 1.25 1.96 2.799 1.96 4.646z" fill="#fff"/>
 <path d="m614.56 75.584c0 0.762-0.04 1.577-0.12 2.445-0.08 0.87-0.2 1.711-0.37 2.528l-2.77 15.814c-0.27 1.413-0.47 2.854-0.61 4.319-0.13 1.47-0.2 2.66-0.2 3.59h-11.58c0-0.6 0.03-1.29 0.08-2.08s0.13-1.54 0.25-2.243h-0.17c-2.99 3.533-7.12 5.303-12.39 5.303-1.42 0-2.87-0.18-4.36-0.53-1.5-0.36-2.86-0.95-4.08-1.8-1.22-0.84-2.22-1.95-2.98-3.34-0.76-1.386-1.14-3.084-1.14-5.094 0-3.26 0.82-5.922 2.45-7.989 1.63-2.064 3.76-3.667 6.4-4.809 2.63-1.141 5.62-1.928 8.97-2.364 3.34-0.435 6.69-0.652 10.07-0.652 0.1-0.49 0.16-0.869 0.16-1.142v-0.734c0-1.575-0.56-2.73-1.67-3.464-1.12-0.733-2.68-1.101-4.69-1.101-1.85 0-3.71 0.354-5.59 1.061-1.87 0.707-3.57 1.63-5.09 2.772l-5.38-7.5c2.44-1.957 5.25-3.465 8.44-4.525 3.17-1.06 6.31-1.589 9.41-1.589 2.45 0 4.7 0.259 6.77 0.775 2.06 0.517 3.84 1.318 5.34 2.405 1.49 1.088 2.68 2.446 3.55 4.077 0.87 1.628 1.3 3.585 1.3 5.867zm-14.43 10.923c-1.63 0-3.29 0.07-4.97 0.204-1.69 0.136-3.2 0.422-4.53 0.856-1.33 0.436-2.43 1.033-3.3 1.794s-1.3 1.767-1.3 3.016c0 1.63 0.55 2.729 1.67 3.3 1.11 0.571 2.35 0.856 3.71 0.856 2.5 0 4.59-0.775 6.28-2.322 1.68-1.549 2.74-3.465 3.18-5.747l0.4-1.957h-1.14z" fill="#fff"/>
 <path d="m638.78 69.551c1.3-2.01 3.04-3.667 5.22-4.973 2.17-1.304 4.67-1.957 7.5-1.957 2.28 0 4.24 0.328 5.87 0.979 1.63 0.652 2.97 1.549 4.03 2.689 1.06 1.141 1.84 2.458 2.33 3.953s0.73 3.057 0.73 4.688c0 0.761-0.03 1.508-0.08 2.241-0.06 0.733-0.16 1.454-0.33 2.161l-4.4 24.948h-13.05l3.84-21.955c0.27-1.246 0.4-2.384 0.4-3.415 0-1.518-0.39-2.805-1.18-3.862-0.79-1.058-2.19-1.586-4.2-1.586-1.2 0-2.27 0.232-3.22 0.692-0.95 0.461-1.79 1.099-2.52 1.912-0.74 0.813-1.34 1.761-1.8 2.845s-0.8 2.223-1.02 3.416l-3.91 21.953h-13.05l5.63-32.202c0.21-1.032 0.45-2.364 0.69-3.994 0.24-1.631 0.42-3.097 0.53-4.403h12.48c-0.06 0.653-0.15 1.578-0.29 2.772-0.14 1.197-0.26 2.23-0.36 3.098h0.16z" fill="#fff"/>
 <path d="m691.53 105.42c-2.94 0-5.67-0.41-8.19-1.22-2.53-0.82-4.71-2-6.53-3.55-1.82-1.549-3.26-3.422-4.32-5.624-1.06-2.201-1.59-4.687-1.59-7.459 0-3.369 0.57-6.574 1.72-9.619 1.14-3.043 2.78-5.707 4.93-7.989 2.14-2.282 4.74-4.103 7.78-5.461 3.05-1.358 6.5-2.038 10.36-2.038 2.99 0 5.76 0.408 8.32 1.222 2.55 0.816 4.75 1.998 6.6 3.547s3.3 3.423 4.36 5.624c1.06 2.202 1.59 4.688 1.59 7.459 0 3.424-0.57 6.657-1.71 9.701s-2.8 5.707-4.97 7.989c-2.18 2.278-4.8 4.088-7.87 5.418s-6.57 2-10.48 2zm12.15-23.722c0-2.446-0.75-4.483-2.24-6.114-1.5-1.63-3.6-2.445-6.32-2.445-1.74 0-3.32 0.354-4.73 1.059-1.41 0.707-2.61 1.658-3.59 2.854s-1.74 2.582-2.28 4.157c-0.55 1.577-0.82 3.234-0.82 4.972 0 2.446 0.74 4.472 2.2 6.074 1.47 1.602 3.56 2.405 6.28 2.405 1.74 0 3.32-0.34 4.73-1.019s2.62-1.617 3.63-2.813c1-1.193 1.78-2.579 2.32-4.156 0.55-1.577 0.82-3.235 0.82-4.974z" fill="#fff"/>
 <path d="m248.38 44.269l8.96 58.741 0.52-0.84 9.83-15.948-4.57-41.953h-14.74z" fill="#fff"/>
 <path d="m321.42 16.172c-0.06 2.249-0.14 5.542-0.89 9.415-0.65 3.225-1.19 5.978-2.95 9.221-2.38 4.361-5.44 6.865-6.48 7.666-0.78 0.603-1.13 0.869-1.84 1.278-3.26 1.641-8.22 3.515-14.34 3.509-0.1 0-0.2 0-0.3-0.006-1.82 2.63-3.6 5.433-5.33 8.415-10.47 18.051-14.88 35.773-16.74 49.62h-14.67l10.93-18.082c-0.38 0.596 0.36-0.661 0 0l21.66-39.708 0.3-0.539c0.01 0 0.01-0.011 0.01-0.011 0.48-0.347 1.06-0.79 1.16-0.852 1.5-1.119 2.36-1.75 2.85-2.113 0.62-0.472 0.64-0.488 0.72-0.55 2.3-1.778 3.91-3.475 4.85-4.487 1.7-1.822 2.88-3.4 3.43-4.138 1.75-2.408 2.79-4.361 3.48-5.685 0 0 0.82-1.556 1.62-3.821 0.19-0.551 0.49-1.438 0.49-2.584v-0.596c-0.06 0.283-0.17 0.693-0.33 1.164-0.3 0.88-0.61 1.51-1.02 2.283-0.82 1.539-1.23 2.3-1.61 2.923-0.96 1.562-1.8 2.647-2.39 3.402-0.3 0.379-1.64 2.078-3.69 4.139-1.59 1.607-2.92 2.742-3.48 3.198-2.86 2.389-5.59 4.093-8.06 5.638-0.14 0.091-0.25 0.154-0.33 0.205l-0.24-0.807-0.09-0.267c-0.19-0.789-0.28-1.351-0.63-2.788-2.12-8.988 2.95-16.654 3.59-17.58 2.13-3.02 4.77-4.957 5.97-5.842 1.62-1.193 3.41-2.249 5.63-3.555 2.15-1.26 2.65-1.464 4.63-2.68 0.39-0.251 2.18-1.335 4.52-2.9874 2.58-1.8118 3.89-2.7086 5.1-3.9236 1.51-1.5106 2.55-2.9758 3.23-4.0889 0.08 0.5163 0.19 1.3056 0.32 2.2658 0.15 1.3226 0.23 2.2647 0.28 2.8785 0.3 3.5714 0.47 3.8556 0.6 5.9226 0.12 1.823 0.08 3.163 0.04 4.548z" fill="#8CC63F"/>
</svg>
