<svg width="717" height="186" viewBox="0 0 717 186" fill="none" xmlns="http://www.w3.org/2000/svg">
<path d="M30.3742 160.151C30.0344 159.505 29.5168 158.952 28.8146 158.495C28.1113 158.038 27.3445 157.811 26.5121 157.811C25.5494 157.811 24.6603 158.032 23.8404 158.475C23.0215 158.92 22.3204 159.524 21.7338 160.292C21.1494 161.06 20.6873 161.947 20.3498 162.951C20.0122 163.956 19.8424 165.003 19.8424 166.096C19.8424 166.834 19.9341 167.535 20.1176 168.202C20.2977 168.865 20.5853 169.457 20.9749 169.974C21.3657 170.49 21.8572 170.904 22.4563 171.215C23.0532 171.525 23.7701 171.678 24.6026 171.678C25.7725 171.678 26.7148 171.452 27.4284 170.994C28.1453 170.539 28.7999 169.973 29.399 169.296L32.013 172.292C31.0243 173.401 29.9064 174.28 28.6583 174.937C27.4102 175.592 25.9673 175.921 24.3285 175.921C22.9773 175.921 21.7485 175.698 20.6442 175.258C19.5377 174.815 18.5897 174.191 17.7969 173.38C17.0041 172.571 16.3914 171.607 15.9622 170.487C15.5329 169.367 15.3188 168.116 15.3188 166.732C15.3188 165.025 15.5929 163.377 16.1377 161.785C16.6847 160.197 17.4515 158.79 18.4402 157.567C19.4278 156.346 20.6318 155.373 22.0486 154.652C23.4643 153.931 25.0318 153.569 26.7477 153.569C28.1509 153.569 29.4829 153.856 30.7445 154.43C32.0051 155.007 32.9735 155.911 33.6507 157.147L30.3742 160.151Z" fill="#8CC63F"/>
<path d="M50.1863 175.921C48.8861 175.921 47.6844 175.698 46.5802 175.258C45.4736 174.815 44.5189 174.183 43.7125 173.356C42.9072 172.534 42.2752 171.563 41.8211 170.442C41.3658 169.325 41.1381 168.072 41.1381 166.688C41.1381 164.951 41.4054 163.294 41.9389 161.718C42.4712 160.143 43.2323 158.752 44.221 157.544C45.2086 156.338 46.3978 155.372 47.7897 154.651C49.1805 153.93 50.7344 153.567 52.4503 153.567C53.7765 153.567 54.9907 153.788 56.096 154.231C57.2026 154.671 58.1574 155.299 58.9637 156.108C59.769 156.917 60.401 157.888 60.8551 159.023C61.3093 160.158 61.5381 161.403 61.5381 162.755C61.5381 164.523 61.2719 166.2 60.7374 167.791C60.2039 169.38 59.444 170.78 58.4552 171.987C57.4665 173.194 56.2727 174.151 54.8683 174.858C53.4617 175.566 51.9021 175.921 50.1863 175.921ZM56.9342 163.303C56.9342 161.71 56.5049 160.394 55.6464 159.362C54.7879 158.327 53.618 157.811 52.1366 157.811C51.1478 157.811 50.2576 158.04 49.4648 158.497C48.6698 158.956 47.9947 159.567 47.4375 160.337C46.8769 161.105 46.4409 161.991 46.1294 162.995C45.8179 164.001 45.6616 165.063 45.6616 166.186C45.6616 167.781 46.0773 169.095 46.9097 170.128C47.741 171.162 48.911 171.678 50.4207 171.678C51.4083 171.678 52.3053 171.459 53.1106 171.015C53.917 170.571 54.5999 169.965 55.1594 169.198C55.7178 168.43 56.1538 167.535 56.4653 166.518C56.7779 165.499 56.9342 164.427 56.9342 163.303Z" fill="#8CC63F"/>
<path d="M86.38 160.151C86.0402 159.505 85.5215 158.952 84.8205 158.495C84.1171 158.038 83.3504 157.811 82.5179 157.811C81.5553 157.811 80.665 158.032 79.8462 158.475C79.0273 158.92 78.3263 159.524 77.7407 160.292C77.1563 161.06 76.6942 161.947 76.3567 162.951C76.0192 163.956 75.8493 165.003 75.8493 166.096C75.8493 166.834 75.9411 167.535 76.1234 168.202C76.3046 168.865 76.5923 169.457 76.9819 169.974C77.3715 170.49 77.8642 170.904 78.4633 171.215C79.0602 171.525 79.7771 171.678 80.6084 171.678C81.7784 171.678 82.7207 171.452 83.4353 170.994C84.1522 170.539 84.8069 169.973 85.406 169.296L88.02 172.292C87.0313 173.401 85.9134 174.28 84.6653 174.937C83.4172 175.592 81.9732 175.921 80.3355 175.921C78.9854 175.921 77.7555 175.698 76.6512 175.258C75.5447 174.815 74.5978 174.191 73.8039 173.38C73.0111 172.571 72.3995 171.607 71.9703 170.487C71.541 169.367 71.327 168.116 71.327 166.732C71.327 165.025 71.601 163.377 72.1469 161.785C72.6929 160.197 73.4607 158.79 74.4483 157.567C75.4359 156.346 76.6387 155.373 78.0567 154.652C79.4724 153.931 81.0399 153.569 82.7558 153.569C84.159 153.569 85.4921 153.856 86.7526 154.43C88.0143 155.007 88.9815 155.911 89.6588 157.147L86.38 160.151Z" fill="#8CC63F"/>
<path d="M96.9073 175.346L100.184 154.143H104.786L101.47 175.346H96.9073ZM106.307 146.856C106.307 147.71 106.039 148.462 105.508 149.108C104.975 149.755 104.318 150.08 103.537 150.08C102.782 150.08 102.14 149.815 101.606 149.284C101.073 148.753 100.806 148.003 100.806 147.033C100.806 146.09 101.092 145.316 101.663 144.711C102.236 144.109 102.899 143.805 103.653 143.805C104.407 143.805 105.038 144.079 105.543 144.624C106.053 145.169 106.307 145.914 106.307 146.856Z" fill="#8CC63F"/>
<path d="M121.13 157.457C121.779 156.309 122.603 155.375 123.606 154.652C124.606 153.931 125.81 153.569 127.214 153.569C128.253 153.569 129.156 153.745 129.925 154.101C130.69 154.454 131.329 154.925 131.836 155.513C132.343 156.103 132.721 156.803 132.966 157.611C133.213 158.424 133.338 159.269 133.338 160.151C133.338 160.888 133.286 161.551 133.181 162.138L131.115 175.347H126.551L128.347 163.684C128.399 163.331 128.443 162.977 128.482 162.625C128.522 162.272 128.54 161.917 128.54 161.565C128.54 160.623 128.32 159.792 127.878 159.068C127.436 158.347 126.63 157.985 125.46 157.985C124.705 157.985 124.043 158.149 123.471 158.472C122.898 158.797 122.398 159.231 121.969 159.776C121.54 160.32 121.19 160.931 120.917 161.607C120.642 162.287 120.454 162.976 120.349 163.683L118.517 175.346H113.954L116.528 158.692C116.631 158.135 116.742 157.412 116.859 156.529C116.977 155.645 117.06 154.85 117.112 154.144H121.404C121.378 154.468 121.326 154.975 121.248 155.668C121.169 156.361 121.104 156.957 121.053 157.457H121.13Z" fill="#8CC63F"/>
<path d="M156.463 161.917C156.515 161.565 156.546 161.292 156.559 161.101C156.573 160.908 156.579 160.725 156.579 160.548C156.579 159.519 156.287 158.781 155.702 158.34C155.117 157.898 154.252 157.678 153.108 157.678C152.197 157.678 151.255 157.876 150.282 158.272C149.306 158.673 148.441 159.179 147.686 159.796L145.932 156.309C146.998 155.455 148.214 154.785 149.578 154.299C150.944 153.813 152.34 153.569 153.772 153.569C154.654 153.569 155.533 153.682 156.405 153.901C157.274 154.121 158.055 154.482 158.744 154.983C159.432 155.483 159.984 156.139 160.401 156.947C160.816 157.757 161.026 158.766 161.026 159.974C161.026 160.238 161.013 160.564 160.986 160.946C160.96 161.329 160.92 161.667 160.868 161.96L159.504 170.573C159.373 171.399 159.264 172.25 159.172 173.136C159.08 174.02 159.036 174.755 159.036 175.345H154.823C154.823 174.55 154.901 173.711 155.057 172.825H154.98C153.524 174.799 151.495 175.786 148.895 175.786C148.246 175.786 147.571 175.696 146.866 175.521C146.165 175.345 145.528 175.041 144.956 174.614C144.383 174.189 143.917 173.615 143.552 172.893C143.187 172.17 143.005 171.265 143.005 170.176C143.005 168.439 143.414 167.033 144.233 165.958C145.052 164.882 146.112 164.044 147.412 163.438C148.712 162.836 150.162 162.429 151.761 162.224C153.361 162.019 154.929 161.917 156.463 161.917ZM155.486 165.628C154.602 165.628 153.686 165.665 152.739 165.737C151.79 165.812 150.919 165.983 150.125 166.246C149.332 166.511 148.683 166.886 148.174 167.373C147.667 167.858 147.413 168.514 147.413 169.337C147.413 169.838 147.497 170.258 147.667 170.596C147.835 170.935 148.062 171.207 148.35 171.413C148.635 171.62 148.96 171.767 149.323 171.855C149.688 171.944 150.066 171.988 150.455 171.988C151.157 171.988 151.813 171.855 152.424 171.59C153.035 171.325 153.567 170.964 154.022 170.507C154.477 170.051 154.854 169.522 155.155 168.916C155.452 168.315 155.668 167.661 155.798 166.953L156.031 165.628H155.486Z" fill="#8CC63F"/>
<path d="M196.281 175.346H191.366L187.701 154.144H192.499L194.683 169.692H194.761L202.561 154.144H207.397L196.281 175.346Z" fill="#8CC63F"/>
<path d="M218.24 166.38C218.214 166.527 218.2 166.688 218.2 166.865C218.2 167.571 218.323 168.221 218.57 168.81C218.818 169.399 219.161 169.907 219.603 170.334C220.045 170.761 220.566 171.101 221.164 171.349C221.761 171.599 222.413 171.725 223.115 171.725C224.311 171.725 225.331 171.474 226.176 170.974C227.021 170.473 227.781 169.796 228.458 168.941L231.07 171.725C228.757 174.552 225.936 175.966 222.607 175.966C221.333 175.966 220.163 175.752 219.099 175.324C218.032 174.898 217.109 174.288 216.328 173.491C215.548 172.696 214.938 171.718 214.496 170.555C214.053 169.391 213.832 168.059 213.832 166.559C213.832 164.732 214.106 163.03 214.651 161.454C215.197 159.879 215.958 158.503 216.932 157.326C217.908 156.149 219.065 155.226 220.404 154.565C221.744 153.903 223.205 153.57 224.792 153.57C225.91 153.57 226.943 153.746 227.893 154.102C228.841 154.455 229.667 154.984 230.369 155.691C231.07 156.397 231.617 157.282 232.007 158.341C232.396 159.4 232.593 160.638 232.593 162.051C232.593 162.523 232.554 163.178 232.475 164.017C232.397 164.855 232.28 165.644 232.124 166.38H218.24ZM228.38 162.669C228.406 162.462 228.425 162.272 228.438 162.094C228.45 161.917 228.458 161.741 228.458 161.565C228.458 160.415 228.1 159.444 227.386 158.651C226.67 157.852 225.662 157.456 224.363 157.456C223.558 157.456 222.828 157.618 222.178 157.943C221.529 158.267 220.962 158.686 220.482 159.201C220.001 159.716 219.603 160.282 219.291 160.902C218.98 161.52 218.771 162.109 218.668 162.669H228.38Z" fill="#8CC63F"/>
<path d="M259.578 157.369L260.047 154.144H264.414L261.449 173.535C261.164 175.391 260.747 177.083 260.201 178.613C259.654 180.146 258.927 181.457 258.015 182.545C257.105 183.636 255.974 184.476 254.624 185.065C253.272 185.651 251.647 185.947 249.748 185.947C248.969 185.947 248.161 185.868 247.33 185.704C246.497 185.542 245.678 185.299 244.874 184.973C244.066 184.65 243.306 184.252 242.592 183.783C241.876 183.31 241.26 182.766 240.739 182.149L243.78 178.394C244.508 179.365 245.405 180.117 246.472 180.648C247.538 181.176 248.668 181.441 249.864 181.441C251.008 181.441 251.976 181.258 252.771 180.887C253.564 180.517 254.235 180.007 254.778 179.358C255.325 178.708 255.754 177.931 256.066 177.026C256.377 176.126 256.639 175.144 256.846 174.078L257.16 172.393H257.081C256.403 173.406 255.513 174.216 254.409 174.826C253.302 175.438 252.05 175.741 250.644 175.741C249.448 175.741 248.364 175.523 247.389 175.08C246.414 174.637 245.582 174.02 244.893 173.224C244.204 172.43 243.671 171.472 243.294 170.353C242.917 169.235 242.729 167.998 242.729 166.643C242.729 164.847 242.982 163.154 243.488 161.565C243.995 159.974 244.704 158.581 245.615 157.389C246.523 156.196 247.609 155.261 248.871 154.584C250.131 153.907 251.515 153.567 253.025 153.567C254.74 153.567 256.118 153.921 257.16 154.63C258.199 155.337 258.965 156.249 259.46 157.368H259.578V157.369ZM247.409 166C247.409 167.555 247.806 168.862 248.599 169.917C249.392 170.976 250.53 171.503 252.01 171.503C252.922 171.503 253.779 171.284 254.586 170.844C255.391 170.402 256.087 169.8 256.671 169.038C257.257 168.276 257.717 167.393 258.056 166.396C258.395 165.398 258.563 164.342 258.563 163.224C258.563 161.612 258.134 160.291 257.276 159.263C256.418 158.235 255.261 157.72 253.805 157.72C252.843 157.72 251.966 157.941 251.173 158.381C250.378 158.824 249.703 159.418 249.145 160.166C248.585 160.913 248.156 161.787 247.857 162.784C247.558 163.782 247.409 164.856 247.409 166Z" fill="#8CC63F"/>
<path d="M278.144 166.38C278.118 166.527 278.105 166.688 278.105 166.865C278.105 167.571 278.228 168.221 278.474 168.81C278.722 169.399 279.065 169.907 279.508 170.334C279.95 170.761 280.471 171.101 281.069 171.349C281.666 171.599 282.317 171.725 283.019 171.725C284.216 171.725 285.237 171.474 286.081 170.974C286.926 170.473 287.686 169.796 288.364 168.941L290.975 171.725C288.661 174.552 285.84 175.966 282.512 175.966C281.237 175.966 280.067 175.752 279.003 175.324C277.936 174.898 277.012 174.288 276.233 173.491C275.453 172.696 274.843 171.718 274.401 170.555C273.958 169.391 273.736 168.059 273.736 166.559C273.736 164.732 274.01 163.03 274.555 161.454C275.102 159.879 275.863 158.503 276.837 157.326C277.812 156.149 278.97 155.226 280.31 154.565C281.649 153.903 283.11 153.57 284.697 153.57C285.815 153.57 286.848 153.746 287.797 154.102C288.745 154.455 289.572 154.984 290.274 155.691C290.975 156.397 291.521 157.282 291.912 158.341C292.302 159.4 292.497 160.638 292.497 162.051C292.497 162.523 292.459 163.178 292.38 164.017C292.303 164.855 292.185 165.644 292.029 166.38H278.144ZM288.283 162.669C288.309 162.462 288.328 162.272 288.341 162.094C288.353 161.917 288.362 161.741 288.362 161.565C288.362 160.415 288.003 159.444 287.29 158.651C286.573 157.852 285.566 157.456 284.267 157.456C283.462 157.456 282.731 157.618 282.082 157.943C281.433 158.267 280.866 158.686 280.386 159.201C279.904 159.716 279.507 160.282 279.195 160.902C278.884 161.52 278.676 162.109 278.571 162.669H288.283Z" fill="#8CC63F"/>
<path d="M302.05 158.386L302.713 154.144H305.951L306.886 147.96H311.41L310.475 154.144H314.685L314.023 158.386H309.889L308.252 168.3C308.173 168.739 308.134 169.15 308.134 169.53C308.134 170.289 308.335 170.818 308.739 171.109C309.142 171.402 309.681 171.548 310.358 171.548C310.67 171.548 310.975 171.523 311.273 171.473C311.571 171.422 311.852 171.36 312.113 171.283L311.839 175.216C311.449 175.392 310.989 175.531 310.455 175.634C309.921 175.738 309.434 175.791 308.992 175.791C307.017 175.791 305.612 175.343 304.781 174.445C303.947 173.55 303.533 172.368 303.533 170.899C303.533 170.488 303.553 170.039 303.591 169.554C303.631 169.072 303.689 168.623 303.768 168.211L305.367 158.387H302.05V158.386Z" fill="#8CC63F"/>
<path d="M335.125 161.917C335.176 161.565 335.209 161.292 335.222 161.101C335.234 160.908 335.242 160.725 335.242 160.548C335.242 159.519 334.95 158.781 334.364 158.34C333.78 157.898 332.915 157.678 331.771 157.678C330.86 157.678 329.918 157.876 328.945 158.272C327.969 158.673 327.103 159.179 326.35 159.796L324.595 156.309C325.659 155.455 326.877 154.785 328.24 154.299C329.606 153.813 331.003 153.569 332.434 153.569C333.317 153.569 334.197 153.682 335.066 153.901C335.936 154.121 336.718 154.482 337.406 154.983C338.095 155.483 338.647 156.139 339.062 156.947C339.479 157.757 339.687 158.766 339.687 159.974C339.687 160.238 339.675 160.564 339.648 160.946C339.623 161.329 339.583 161.667 339.531 161.96L338.166 170.573C338.036 171.399 337.926 172.25 337.836 173.136C337.745 174.021 337.699 174.755 337.699 175.345H333.485C333.485 174.55 333.565 173.711 333.719 172.825H333.643C332.186 174.799 330.158 175.786 327.557 175.786C326.907 175.786 326.233 175.696 325.529 175.521C324.828 175.345 324.189 175.041 323.618 174.614C323.046 174.189 322.58 173.615 322.215 172.893C321.85 172.17 321.669 171.265 321.669 170.176C321.669 168.439 322.078 167.033 322.896 165.958C323.716 164.883 324.775 164.044 326.075 163.438C327.375 162.836 328.825 162.429 330.423 162.224C332.021 162.019 333.591 161.917 335.125 161.917ZM334.149 165.628C333.263 165.628 332.348 165.665 331.399 165.737C330.451 165.812 329.579 165.983 328.786 166.246C327.994 166.511 327.345 166.886 326.837 167.373C326.329 167.858 326.076 168.514 326.076 169.337C326.076 169.838 326.16 170.258 326.33 170.596C326.497 170.935 326.726 171.207 327.014 171.413C327.299 171.62 327.624 171.767 327.988 171.855C328.351 171.944 328.73 171.988 329.12 171.988C329.822 171.988 330.478 171.855 331.088 171.59C331.7 171.325 332.232 170.964 332.687 170.507C333.142 170.051 333.519 169.522 333.819 168.916C334.117 168.315 334.333 167.661 334.464 166.953L334.697 165.628H334.149Z" fill="#8CC63F"/>
<path d="M356.77 157.678C357.419 156.441 358.186 155.447 359.069 154.695C359.954 153.946 361.019 153.569 362.268 153.569C362.45 153.569 362.645 153.576 362.853 153.591C363.06 153.607 363.244 153.644 363.4 153.702L362.774 158.519C362.488 158.429 362.235 158.371 362.013 158.341C361.794 158.312 361.579 158.296 361.369 158.296C360.305 158.296 359.434 158.519 358.757 158.959C358.079 159.4 357.536 159.93 357.12 160.549C356.704 161.167 356.403 161.801 356.222 162.45C356.041 163.098 355.924 163.613 355.872 163.995L354.115 175.347H349.552L352.167 158.694C352.269 158.136 352.38 157.413 352.499 156.53C352.615 155.646 352.698 154.851 352.752 154.145H357.042C357.042 154.292 357.029 154.514 357.002 154.806C356.977 155.101 356.946 155.426 356.906 155.778C356.866 156.132 356.827 156.48 356.788 156.817C356.749 157.157 356.718 157.445 356.691 157.679H356.77V157.678Z" fill="#8CC63F"/>
<path d="M369.524 175.346L372.8 154.143H377.403L374.087 175.346H369.524ZM378.923 146.856C378.923 147.71 378.656 148.462 378.125 149.108C377.591 149.755 376.934 150.08 376.155 150.08C375.399 150.08 374.758 149.815 374.223 149.284C373.69 148.753 373.425 148.003 373.425 147.033C373.425 146.09 373.711 145.316 374.281 144.711C374.855 144.109 375.518 143.805 376.272 143.805C377.026 143.805 377.657 144.079 378.162 144.624C378.668 145.169 378.923 145.914 378.923 146.856Z" fill="#8CC63F"/>
<path d="M399.67 161.917C399.722 161.565 399.754 161.292 399.767 161.101C399.781 160.908 399.789 160.725 399.789 160.548C399.789 159.519 399.495 158.781 398.91 158.34C398.325 157.898 397.461 157.678 396.317 157.678C395.406 157.678 394.463 157.876 393.49 158.272C392.515 158.673 391.648 159.179 390.896 159.796L389.14 156.309C390.206 155.455 391.423 154.785 392.786 154.299C394.151 153.813 395.548 153.569 396.98 153.569C397.862 153.569 398.741 153.682 399.612 153.901C400.482 154.121 401.263 154.482 401.951 154.983C402.639 155.483 403.192 156.139 403.609 156.947C404.025 157.757 404.233 158.766 404.233 159.974C404.233 160.238 404.219 160.564 404.194 160.946C404.169 161.327 404.129 161.667 404.077 161.96L402.713 170.573C402.584 171.399 402.473 172.25 402.382 173.136C402.291 174.02 402.245 174.755 402.245 175.345H398.032C398.032 174.55 398.11 173.711 398.265 172.825H398.191C396.733 174.799 394.705 175.786 392.103 175.786C391.455 175.786 390.779 175.696 390.077 175.521C389.376 175.345 388.736 175.041 388.165 174.614C387.592 174.189 387.125 173.615 386.763 172.893C386.396 172.17 386.217 171.265 386.217 170.176C386.217 168.439 386.624 167.033 387.445 165.958C388.264 164.883 389.323 164.044 390.624 163.438C391.924 162.836 393.374 162.429 394.973 162.224C396.57 162.022 398.136 161.917 399.67 161.917ZM398.695 165.628C397.81 165.628 396.895 165.665 395.947 165.737C394.997 165.812 394.127 165.983 393.333 166.246C392.54 166.511 391.89 166.886 391.383 167.373C390.875 167.858 390.622 168.514 390.622 169.337C390.622 169.838 390.704 170.258 390.875 170.596C391.043 170.935 391.271 171.207 391.559 171.413C391.844 171.62 392.169 171.767 392.533 171.855C392.896 171.944 393.274 171.988 393.664 171.988C394.366 171.988 395.023 171.855 395.632 171.59C396.245 171.325 396.776 170.964 397.231 170.507C397.687 170.051 398.063 169.522 398.364 168.916C398.663 168.315 398.876 167.661 399.007 166.953L399.239 165.628H398.695Z" fill="#8CC63F"/>
<path d="M421.395 157.457C422.043 156.309 422.868 155.375 423.871 154.652C424.871 153.931 426.074 153.569 427.479 153.569C428.519 153.569 429.421 153.745 430.19 154.101C430.956 154.454 431.594 154.925 432.101 155.513C432.608 156.103 432.986 156.803 433.233 157.611C433.478 158.424 433.604 159.269 433.604 160.151C433.604 160.888 433.551 161.551 433.445 162.138L431.38 175.347H426.816L428.612 163.684C428.664 163.331 428.708 162.977 428.746 162.625C428.786 162.272 428.805 161.917 428.805 161.565C428.805 160.623 428.584 159.792 428.143 159.068C427.7 158.347 426.893 157.985 425.725 157.985C424.97 157.985 424.307 158.149 423.736 158.472C423.163 158.797 422.663 159.231 422.234 159.776C421.805 160.32 421.455 160.931 421.182 161.607C420.908 162.287 420.719 162.976 420.614 163.683L418.782 175.346H414.22L416.793 158.692C416.895 158.135 417.007 157.412 417.124 156.529C417.242 155.645 417.325 154.85 417.378 154.144H421.669C421.643 154.468 421.591 154.975 421.511 155.668C421.434 156.36 421.368 156.957 421.318 157.457H421.395Z" fill="#8CC63F"/>
<path d="M456.727 161.917C456.78 161.565 456.81 161.292 456.824 161.101C456.839 160.908 456.846 160.725 456.846 160.548C456.846 159.519 456.552 158.781 455.967 158.34C455.382 157.898 454.518 157.678 453.374 157.678C452.464 157.678 451.521 157.876 450.547 158.272C449.572 158.673 448.706 159.179 447.953 159.796L446.198 156.309C447.264 155.455 448.48 154.785 449.845 154.299C451.21 153.813 452.607 153.569 454.039 153.569C454.921 153.569 455.799 153.682 456.671 153.901C457.541 154.121 458.322 154.482 459.01 154.983C459.697 155.483 460.25 156.139 460.667 156.947C461.083 157.757 461.292 158.766 461.292 159.974C461.292 160.238 461.278 160.564 461.254 160.946C461.226 161.329 461.187 161.667 461.136 161.96L459.772 170.573C459.642 171.399 459.531 172.25 459.44 173.136C459.349 174.02 459.303 174.755 459.303 175.345H455.091C455.091 174.55 455.168 173.711 455.325 172.825H455.247C453.791 174.799 451.764 175.786 449.162 175.786C448.513 175.786 447.837 175.696 447.134 175.521C446.433 175.345 445.794 175.041 445.223 174.614C444.65 174.189 444.185 173.615 443.82 172.893C443.455 172.17 443.274 171.265 443.274 170.176C443.274 168.439 443.683 167.033 444.502 165.958C445.322 164.883 446.381 164.044 447.681 163.438C448.981 162.836 450.432 162.429 452.031 162.224C453.627 162.022 455.193 161.917 456.727 161.917ZM455.75 165.628C454.867 165.628 453.951 165.665 453.003 165.737C452.053 165.812 451.183 165.983 450.389 166.246C449.595 166.511 448.947 166.886 448.437 167.373C447.931 167.858 447.676 168.514 447.676 169.337C447.676 169.838 447.761 170.258 447.931 170.596C448.099 170.935 448.327 171.207 448.615 171.413C448.901 171.62 449.226 171.767 449.588 171.855C449.952 171.944 450.33 171.988 450.721 171.988C451.422 171.988 452.079 171.855 452.689 171.59C453.299 171.325 453.832 170.964 454.287 170.507C454.742 170.051 455.118 169.522 455.42 168.916C455.719 168.315 455.933 167.661 456.063 166.953L456.296 165.628H455.75Z" fill="#8CC63F"/>
<path d="M494.753 179.94C494.285 180.882 493.816 181.729 493.348 182.479C492.88 183.23 492.368 183.863 491.807 184.379C491.25 184.894 490.633 185.283 489.954 185.548C489.278 185.813 488.486 185.947 487.576 185.947C487.185 185.947 486.79 185.924 486.388 185.88C485.983 185.836 485.586 185.757 485.196 185.639L485.783 181.132C486.068 181.25 486.362 181.332 486.658 181.373C486.957 181.42 487.237 181.443 487.496 181.443C488.355 181.443 489.025 181.171 489.505 180.626C489.986 180.08 490.513 179.248 491.086 178.129L492.488 175.391L488.276 154.144H493.189L495.608 169.692H495.685L503.172 154.144H508.01L494.753 179.94Z" fill="#8CC63F"/>
<path d="M539.289 175.346H534.375L530.71 154.144H535.506L537.69 169.692H537.768L545.568 154.144H550.405L539.289 175.346Z" fill="#8CC63F"/>
<path d="M561.247 166.38C561.223 166.527 561.209 166.688 561.209 166.865C561.209 167.571 561.331 168.221 561.578 168.81C561.826 169.399 562.169 169.907 562.612 170.334C563.054 170.761 563.575 171.101 564.174 171.349C564.77 171.599 565.422 171.725 566.123 171.725C567.319 171.725 568.34 171.474 569.185 170.974C570.029 170.473 570.789 169.796 571.467 168.941L574.078 171.725C571.766 174.552 568.946 175.966 565.616 175.966C564.343 175.966 563.173 175.752 562.106 175.324C561.04 174.898 560.116 174.288 559.336 173.491C558.557 172.696 557.945 171.718 557.504 170.555C557.062 169.391 556.839 168.059 556.839 166.559C556.839 164.732 557.114 163.03 557.66 161.454C558.207 159.879 558.968 158.503 559.942 157.326C560.918 156.149 562.074 155.226 563.414 154.565C564.753 153.903 566.214 153.57 567.801 153.57C568.918 153.57 569.952 153.746 570.902 154.102C571.849 154.455 572.675 154.984 573.377 155.691C574.08 156.397 574.627 157.282 575.015 158.341C575.406 159.4 575.602 160.638 575.602 162.051C575.602 162.523 575.563 163.178 575.484 164.017C575.406 164.855 575.288 165.644 575.133 166.38H561.247ZM571.389 162.669C571.413 162.462 571.433 162.272 571.445 162.094C571.459 161.917 571.467 161.741 571.467 161.565C571.467 160.415 571.109 159.444 570.394 158.651C569.678 157.852 568.672 157.456 567.372 157.456C566.566 157.456 565.837 157.618 565.188 157.943C564.538 158.267 563.971 158.686 563.491 159.201C563.01 159.716 562.613 160.282 562.301 160.902C561.99 161.52 561.78 162.109 561.678 162.669H571.389Z" fill="#8CC63F"/>
<path d="M602.589 157.369L603.056 154.144H607.424L604.46 173.535C604.175 175.391 603.759 177.083 603.212 178.613C602.665 180.146 601.938 181.457 601.026 182.545C600.115 183.636 598.985 184.476 597.634 185.065C596.283 185.651 594.656 185.947 592.759 185.947C591.98 185.947 591.171 185.868 590.341 185.704C589.508 185.542 588.689 185.299 587.883 184.973C587.076 184.65 586.317 184.252 585.601 183.783C584.886 183.31 584.269 182.766 583.748 182.149L586.792 178.394C587.519 179.365 588.416 180.117 589.483 180.648C590.547 181.176 591.679 181.441 592.875 181.441C594.017 181.441 594.986 181.258 595.781 180.887C596.574 180.517 597.243 180.007 597.788 179.358C598.334 178.708 598.763 177.931 599.076 177.026C599.387 176.126 599.647 175.144 599.855 174.078L600.168 172.393H600.09C599.413 173.406 598.523 174.216 597.42 174.826C596.313 175.438 595.059 175.741 593.655 175.741C592.458 175.741 591.375 175.523 590.4 175.08C589.424 174.637 588.591 174.02 587.904 173.224C587.215 172.43 586.681 171.472 586.305 170.353C585.928 169.235 585.739 167.998 585.739 166.643C585.739 164.847 585.993 163.154 586.498 161.565C587.006 159.974 587.715 158.581 588.626 157.389C589.535 156.196 590.621 155.261 591.881 154.584C593.142 153.907 594.527 153.567 596.036 153.567C597.75 153.567 599.129 153.921 600.17 154.63C601.209 155.337 601.976 156.249 602.47 157.368H602.589V157.369ZM590.419 166C590.419 167.555 590.818 168.862 591.611 169.917C592.404 170.976 593.542 171.503 595.023 171.503C595.934 171.503 596.792 171.284 597.596 170.844C598.403 170.402 599.099 169.8 599.683 169.038C600.269 168.276 600.73 167.393 601.068 166.396C601.405 165.398 601.575 164.342 601.575 163.224C601.575 161.612 601.146 160.291 600.287 159.263C599.429 158.235 598.273 157.72 596.818 157.72C595.853 157.72 594.978 157.941 594.185 158.381C593.391 158.824 592.715 159.418 592.158 160.166C591.598 160.913 591.169 161.787 590.869 162.784C590.569 163.78 590.419 164.856 590.419 166Z" fill="#8CC63F"/>
<path d="M629.615 161.917C629.669 161.565 629.699 161.292 629.713 161.101C629.726 160.908 629.734 160.725 629.734 160.548C629.734 159.519 629.441 158.781 628.857 158.34C628.272 157.898 627.407 157.678 626.263 157.678C625.352 157.678 624.41 157.876 623.436 158.272C622.461 158.673 621.596 159.179 620.841 159.796L619.087 156.309C620.152 155.455 621.368 154.785 622.733 154.299C624.097 153.813 625.495 153.569 626.927 153.569C627.808 153.569 628.687 153.682 629.559 153.901C630.427 154.121 631.209 154.482 631.897 154.983C632.586 155.483 633.138 156.139 633.554 156.947C633.97 157.757 634.18 158.766 634.18 159.974C634.18 160.238 634.165 160.564 634.141 160.946C634.115 161.329 634.074 161.667 634.022 161.96L632.66 170.573C632.529 171.399 632.42 172.25 632.328 173.136C632.236 174.021 632.192 174.755 632.192 175.345H627.979C627.979 174.55 628.057 173.711 628.212 172.825H628.136C626.679 174.799 624.651 175.786 622.05 175.786C621.401 175.786 620.725 175.696 620.022 175.521C619.32 175.345 618.683 175.041 618.112 174.614C617.539 174.189 617.072 173.615 616.707 172.893C616.343 172.17 616.163 171.265 616.163 170.176C616.163 168.439 616.57 167.033 617.39 165.958C618.209 164.883 619.269 164.044 620.569 163.438C621.87 162.836 623.319 162.429 624.919 162.224C626.515 162.022 628.083 161.917 629.615 161.917ZM628.64 165.628C627.757 165.628 626.841 165.665 625.893 165.737C624.943 165.812 624.073 165.983 623.279 166.246C622.486 166.511 621.837 166.886 621.328 167.373C620.821 167.858 620.567 168.514 620.567 169.337C620.567 169.838 620.651 170.258 620.821 170.596C620.988 170.935 621.217 171.207 621.504 171.413C621.79 171.62 622.115 171.767 622.478 171.855C622.841 171.944 623.22 171.988 623.61 171.988C624.311 171.988 624.968 171.855 625.579 171.59C626.189 171.325 626.722 170.964 627.177 170.507C627.632 170.051 628.008 169.522 628.309 168.916C628.608 168.315 628.823 167.661 628.953 166.953L629.186 165.628H628.64Z" fill="#8CC63F"/>
<path d="M651.34 157.457C651.989 156.309 652.814 155.375 653.816 154.652C654.816 153.931 656.019 153.569 657.425 153.569C658.465 153.569 659.367 153.745 660.136 154.101C660.902 154.454 661.539 154.925 662.047 155.513C662.555 156.103 662.931 156.803 663.178 157.611C663.424 158.424 663.548 159.269 663.548 160.151C663.548 160.888 663.497 161.551 663.392 162.138L661.325 175.347H656.762L658.557 163.684C658.608 163.331 658.653 162.977 658.693 162.625C658.732 162.272 658.751 161.917 658.751 161.565C658.751 160.623 658.531 159.792 658.088 159.068C657.647 158.347 656.84 157.985 655.67 157.985C654.916 157.985 654.252 158.149 653.681 158.472C653.108 158.797 652.609 159.231 652.181 159.776C651.75 160.32 651.4 160.931 651.128 161.607C650.853 162.287 650.665 162.976 650.56 163.683L648.728 175.346H644.166L646.74 158.692C646.842 158.135 646.953 157.412 647.069 156.529C647.187 155.645 647.272 154.85 647.324 154.144H651.615C651.588 154.468 651.536 154.975 651.458 155.668C651.379 156.36 651.313 156.957 651.262 157.457H651.34Z" fill="#8CC63F"/>
<path d="M686.673 161.917C686.726 161.565 686.757 161.292 686.771 161.101C686.783 160.908 686.792 160.725 686.792 160.548C686.792 159.519 686.498 158.781 685.914 158.34C685.329 157.898 684.465 157.678 683.32 157.678C682.409 157.678 681.467 157.876 680.494 158.272C679.519 158.673 678.653 159.179 677.898 159.796L676.145 156.309C677.21 155.455 678.426 154.785 679.791 154.299C681.156 153.813 682.553 153.569 683.985 153.569C684.867 153.569 685.746 153.682 686.617 153.901C687.487 154.121 688.267 154.482 688.956 154.983C689.643 155.483 690.197 156.139 690.613 156.947C691.028 157.756 691.238 158.766 691.238 159.974C691.238 160.238 691.224 160.564 691.199 160.946C691.173 161.329 691.132 161.667 691.081 161.96L689.718 170.573C689.588 171.399 689.477 172.25 689.386 173.136C689.294 174.02 689.249 174.755 689.249 175.345H685.037C685.037 174.55 685.115 173.711 685.27 172.825H685.193C683.737 174.799 681.709 175.786 679.108 175.786C678.46 175.786 677.784 175.696 677.081 175.521C676.378 175.345 675.741 175.041 675.17 174.614C674.596 174.189 674.13 173.615 673.767 172.893C673.401 172.17 673.22 171.265 673.22 170.176C673.22 168.439 673.628 167.033 674.448 165.958C675.267 164.883 676.326 164.044 677.628 163.438C678.927 162.836 680.379 162.429 681.977 162.224C683.574 162.022 685.141 161.917 686.673 161.917ZM685.698 165.628C684.815 165.628 683.898 165.665 682.95 165.737C681.999 165.812 681.13 165.983 680.336 166.246C679.543 166.511 678.894 166.886 678.385 167.373C677.879 167.858 677.624 168.514 677.624 169.337C677.624 169.838 677.707 170.258 677.879 170.596C678.046 170.935 678.274 171.207 678.561 171.413C678.847 171.62 679.171 171.767 679.535 171.855C679.898 171.944 680.278 171.988 680.667 171.988C681.368 171.988 682.025 171.855 682.636 171.59C683.247 171.325 683.78 170.964 684.235 170.507C684.689 170.051 685.066 169.522 685.367 168.916C685.666 168.315 685.88 167.661 686.01 166.953L686.243 165.628H685.698Z" fill="#8CC63F"/>
<path d="M295.367 48.6775C293.692 51.1347 292.06 53.7256 290.517 56.3832C283.117 69.1358 277.945 83.1939 275.132 98.1874L305.775 46.7865C302.376 47.9959 298.88 48.6322 295.367 48.6775Z" fill="white"/>
<path d="M39.9229 58.4656C38.8345 56.7274 37.4086 55.449 35.6429 54.6348C33.8761 53.8195 31.9598 53.4119 29.8951 53.4119C28.861 53.4119 27.7194 53.575 26.4702 53.9011C25.2198 54.2272 24.0646 54.73 23.0056 55.4094C21.9444 56.0899 21.061 56.9992 20.3554 58.1406C19.6475 59.282 19.2953 60.668 19.2953 62.2975C19.2953 64.364 20.0145 65.9663 21.4551 67.1077C22.8946 68.2491 24.8393 69.2818 27.2845 70.2047C32.3392 72.0527 36.225 74.2676 38.9443 76.8493C41.6614 79.43 43.0205 82.9222 43.0205 87.3236C43.0205 90.6391 42.3681 93.4666 41.0634 95.8015C39.7598 98.1376 38.0474 100.04 35.9272 101.507C33.807 102.974 31.415 104.048 28.7523 104.728C26.0885 105.407 23.3975 105.746 20.6804 105.746C18.7777 105.746 16.8614 105.555 14.9326 105.174C13.0027 104.794 11.1679 104.225 9.42943 103.463C7.68979 102.702 6.07247 101.74 4.57861 100.569C3.08361 99.4013 1.81965 98.0006 0.786743 96.3711L8.94015 90.7456C10.0274 92.6491 11.6719 94.2106 13.8725 95.4335C16.0743 96.6553 18.5059 97.2668 21.1697 97.2668C22.5277 97.2668 23.8732 97.1037 25.2062 96.7776C26.537 96.4526 27.7341 95.9216 28.7931 95.1878C29.852 94.4552 30.7218 93.5051 31.4025 92.3343C32.0821 91.1668 32.4218 89.714 32.4218 87.9736C32.4218 86.6703 32.1364 85.5152 31.5656 84.5097C30.9948 83.5042 30.2326 82.6209 29.2823 81.86C28.3298 81.1002 27.2301 80.4208 25.9798 79.8229C24.7283 79.2262 23.3963 78.6815 21.9852 78.1923C20.2433 77.5401 18.601 76.8063 17.0528 75.9922C15.5034 75.1769 14.1296 74.1861 12.9347 73.0175C11.7387 71.8489 10.801 70.4481 10.1226 68.8187C9.44188 67.1881 9.10324 65.2597 9.10324 63.0312C9.10324 60.1517 9.71484 57.5982 10.938 55.3686C12.1612 53.1413 13.7774 51.2661 15.7888 49.7442C17.7992 48.2223 20.1232 47.0673 22.7598 46.2803C25.3953 45.4922 28.1271 45.097 30.9529 45.097C32.4207 45.097 33.9282 45.2612 35.4787 45.5862C37.028 45.9123 38.5219 46.389 39.9625 47.013C41.402 47.6392 42.7611 48.4137 44.0398 49.3366C45.3151 50.2606 46.3899 51.3476 47.2597 52.5966L39.9229 58.4656Z" fill="white"/>
<path d="M39.9229 58.4656C38.8345 56.7274 37.4086 55.449 35.6429 54.6348C33.8761 53.8195 31.9598 53.4119 29.8951 53.4119C28.861 53.4119 27.7194 53.575 26.4702 53.9011C25.2198 54.2272 24.0646 54.73 23.0056 55.4094C21.9444 56.0899 21.061 56.9992 20.3554 58.1406C19.6475 59.282 19.2953 60.668 19.2953 62.2975C19.2953 64.364 20.0145 65.9663 21.4551 67.1077C22.8946 68.2491 24.8393 69.2818 27.2845 70.2047C32.3392 72.0527 36.225 74.2676 38.9443 76.8493C41.6614 79.43 43.0205 82.9222 43.0205 87.3236C43.0205 90.6391 42.3681 93.4666 41.0634 95.8015C39.7598 98.1376 38.0474 100.04 35.9272 101.507C33.807 102.974 31.415 104.048 28.7523 104.728C26.0885 105.407 23.3975 105.746 20.6804 105.746C18.7777 105.746 16.8614 105.555 14.9326 105.174C13.0027 104.794 11.1679 104.225 9.42942 103.463C7.68979 102.702 6.07247 101.74 4.57861 100.569C3.08361 99.4013 1.81965 98.0006 0.786743 96.3711L8.94015 90.7456C10.0274 92.6491 11.6719 94.2106 13.8725 95.4335C16.0743 96.6553 18.5059 97.2668 21.1697 97.2668C22.5277 97.2668 23.8732 97.1037 25.2062 96.7776C26.537 96.4526 27.7341 95.9216 28.7931 95.1878C29.852 94.4552 30.7219 93.5051 31.4025 92.3343C32.0821 91.1668 32.4218 89.714 32.4218 87.9736C32.4218 86.6703 32.1364 85.5152 31.5656 84.5097C30.9948 83.5042 30.2326 82.6209 29.2823 81.86C28.3298 81.1002 27.2301 80.4208 25.9798 79.8229C24.7283 79.2262 23.3963 78.6815 21.9852 78.1923C20.2433 77.5401 18.601 76.8063 17.0528 75.9922C15.5034 75.1769 14.1296 74.1861 12.9347 73.0175C11.7387 71.8489 10.801 70.4481 10.1226 68.8187C9.44188 67.1881 9.10324 65.2597 9.10324 63.0312C9.10324 60.1517 9.71483 57.5982 10.938 55.3686C12.1612 53.1413 13.7774 51.2661 15.7888 49.7442C17.7992 48.2223 20.1232 47.0673 22.7598 46.2803C25.3954 45.4922 28.1271 45.097 30.9529 45.097C32.4207 45.097 33.9282 45.2612 35.4787 45.5862C37.028 45.9123 38.5219 46.389 39.9625 47.013C41.402 47.6392 42.7611 48.4137 44.0398 49.3366C45.3151 50.2606 46.3899 51.3476 47.2597 52.5966L39.9229 58.4656Z" stroke="white" stroke-width="0.1746" stroke-miterlimit="10"/>
<path d="M76.6931 98.1636C75.3329 100.283 73.6068 102.009 71.515 103.34C69.422 104.671 66.9088 105.337 63.9731 105.337C61.7986 105.337 59.9095 105.012 58.3057 104.36C56.702 103.708 55.3712 102.838 54.3111 101.751C53.251 100.664 52.4616 99.3741 51.9463 97.8794C51.4287 96.3847 51.1716 94.822 51.1716 93.1903C51.1716 91.8326 51.2804 90.6097 51.4989 89.5226L55.8197 65.1499H65.3583L61.6072 86.6702C61.4973 87.3225 61.4033 87.9736 61.3218 88.6258C61.2402 89.278 61.1995 89.9303 61.1995 90.5825C61.1995 92.3229 61.6604 93.8573 62.5857 95.1878C63.5088 96.5217 65.1941 97.1853 67.6404 97.1853C69.1615 97.1853 70.5341 96.8875 71.7573 96.2896C72.9805 95.6928 74.0406 94.8911 74.9376 93.8833C75.8346 92.8789 76.5685 91.7522 77.1382 90.5021C77.709 89.252 78.1031 87.9747 78.3206 86.6714L82.1521 65.151H91.6907L86.3098 95.8831C86.0912 96.9158 85.8613 98.2474 85.6167 99.8769C85.372 101.507 85.1942 102.974 85.0866 104.279H76.1178C76.171 103.683 76.282 102.745 76.4451 101.468C76.6082 100.191 76.7429 99.091 76.8517 98.1659H76.6931V98.1636Z" fill="white"/>
<path d="M103.6 123.765H93.9785L104.334 65.1499H113.384L112.406 71.4265H112.65C114.226 69.1437 116.237 67.3784 118.685 66.1271C121.131 64.8781 123.821 64.2531 126.755 64.2531C129.255 64.2531 131.525 64.6607 133.563 65.476C135.602 66.2913 137.341 67.4463 138.781 68.941C140.22 70.4357 141.336 72.2158 142.124 74.28C142.911 76.3466 143.306 78.6283 143.306 81.1274C143.306 84.4984 142.776 87.6486 141.715 90.5837C140.655 93.5198 139.174 96.0869 137.271 98.2882C135.368 100.489 133.099 102.229 130.464 103.505C127.827 104.781 124.933 105.42 121.781 105.42C118.194 105.42 115.299 104.76 113.098 103.443C110.896 102.125 109.224 100.312 108.082 98.0051H107.919L103.6 123.765ZM133.522 82.2359C133.522 79.3654 132.693 76.9535 131.036 75.0036C129.378 73.0537 127.001 72.0776 123.902 72.0776C121.998 72.0776 120.204 72.4841 118.52 73.2972C116.835 74.1091 115.382 75.2199 114.158 76.6285C112.934 78.0372 111.969 79.6757 111.263 81.5441C110.556 83.4136 110.203 85.376 110.203 87.4346C110.203 90.4149 111.1 92.854 112.894 94.7473C114.687 96.644 117.106 97.5929 120.15 97.5929C122.159 97.5929 123.995 97.1864 125.653 96.3734C127.311 95.5604 128.724 94.4631 129.894 93.0839C131.061 91.7024 131.958 90.0775 132.583 88.208C133.209 86.3407 133.522 84.35 133.522 82.2359Z" fill="white"/>
<path d="M159.124 87.7301C159.069 88.003 159.043 88.3008 159.043 88.6269C159.043 89.9314 159.3 91.1283 159.817 92.2142C160.334 93.3024 161.053 94.24 161.978 95.0259C162.901 95.814 163.988 96.4402 165.24 96.8999C166.489 97.363 167.848 97.5941 169.317 97.5941C171.817 97.5941 173.951 97.132 175.718 96.2069C177.483 95.284 179.073 94.0339 180.487 92.4566L185.949 97.5929C181.111 102.807 175.214 105.417 168.256 105.417C165.592 105.417 163.147 105.021 160.918 104.236C158.688 103.449 156.761 102.32 155.13 100.853C153.499 99.3866 152.221 97.5793 151.297 95.4324C150.372 93.2855 149.911 90.826 149.911 88.0551C149.911 84.6852 150.482 81.5475 151.623 78.6396C152.765 75.7328 154.355 73.1918 156.392 71.0177C158.431 68.8447 160.85 67.1451 163.649 65.9221C166.449 64.6992 169.505 64.0877 172.822 64.0877C175.158 64.0877 177.319 64.415 179.305 65.0661C181.288 65.7183 183.014 66.6967 184.483 68.0011C185.949 69.3045 187.091 70.9351 187.906 72.8929C188.721 74.8485 189.128 77.1313 189.128 79.7391C189.128 80.6088 189.047 81.8181 188.884 83.3672C188.721 84.9162 188.476 86.3702 188.15 87.729H159.124V87.7301ZM180.322 80.8828C180.375 80.5035 180.416 80.1502 180.444 79.8229C180.47 79.4957 180.485 79.1707 180.485 78.8445C180.485 76.7259 179.737 74.9323 178.243 73.4647C176.747 71.9983 174.642 71.2646 171.925 71.2646C170.239 71.2646 168.716 71.5635 167.359 72.1614C165.999 72.7604 164.818 73.5338 163.812 74.485C162.805 75.4362 161.977 76.4825 161.326 77.6239C160.674 78.7653 160.239 79.8523 160.022 80.8839H180.322V80.8828Z" fill="white"/>
<path d="M210.244 71.6711C211.602 69.3883 213.206 67.555 215.054 66.169C216.901 64.783 219.132 64.09 221.74 64.09C222.119 64.09 222.527 64.1047 222.963 64.1319C223.397 64.1602 223.778 64.227 224.104 64.3357L222.799 73.2213C222.201 73.0582 221.67 72.9495 221.209 72.8963C220.747 72.842 220.298 72.8137 219.863 72.8137C217.633 72.8137 215.813 73.2213 214.401 74.0366C212.986 74.8519 211.846 75.8302 210.977 76.9716C210.107 78.1131 209.481 79.2816 209.101 80.4763C208.721 81.6732 208.476 82.6232 208.368 83.3298L204.698 104.279H195.159L200.622 73.5474C200.839 72.5158 201.07 71.1831 201.315 69.5536C201.56 67.9242 201.735 66.4555 201.845 65.1521H210.813C210.813 65.4239 210.786 65.8327 210.731 66.3751C210.677 66.9186 210.61 67.5165 210.527 68.1676C210.446 68.8198 210.364 69.4596 210.283 70.0835C210.202 70.7086 210.133 71.2386 210.08 71.6722H210.244V71.6711Z" fill="white"/>
<path d="M308.084 87.4856C308.029 87.703 308.001 87.9476 308.001 88.2182C308.001 89.3596 308.26 90.3787 308.776 91.2755C309.291 92.1724 309.971 92.9345 310.814 93.5584C311.656 94.1846 312.606 94.6601 313.669 94.9851C314.728 95.3124 315.83 95.4743 316.971 95.4743C319.036 95.4743 320.857 95.095 322.434 94.3329C324.01 93.5731 325.421 92.5392 326.673 91.237L334.908 97.6756C332.3 100.449 329.391 102.446 326.184 103.668C322.976 104.891 319.524 105.502 315.829 105.502C313 105.502 310.377 105.107 307.961 104.319C305.541 103.534 303.435 102.364 301.642 100.814C299.848 99.2654 298.434 97.3495 297.402 95.0678C296.369 92.7861 295.852 90.176 295.852 87.2421C295.852 83.7646 296.464 80.5171 297.686 77.5005C298.91 74.4839 300.594 71.8625 302.742 69.634C304.889 67.4067 307.457 65.6538 310.445 64.3765C313.435 63.1003 316.726 62.4605 320.312 62.4605C322.975 62.4605 325.409 62.8421 327.61 63.6019C329.81 64.3629 331.698 65.4647 333.276 66.9039C334.851 68.3443 336.074 70.1243 336.944 72.2418C337.814 74.3616 338.249 76.8075 338.249 79.5795C338.249 80.5578 338.154 81.7943 337.964 83.2879C337.773 84.7826 337.515 86.1822 337.189 87.4867H308.084V87.4856ZM326.591 79.4968C326.645 79.2261 326.672 78.9544 326.672 78.6826V77.8673C326.672 76.0737 326.032 74.579 324.757 73.3832C323.479 72.1886 321.643 71.5896 319.252 71.5896C317.786 71.5896 316.467 71.8489 315.299 72.3641C314.13 72.8816 313.11 73.5202 312.241 74.28C311.371 75.0421 310.664 75.8835 310.121 76.8063C309.578 77.7315 309.197 78.6272 308.98 79.4957H326.591V79.4968Z" fill="white"/>
<path d="M379.507 69.0633L380.402 63.6824H392.713L386.273 100.53C385.62 104.279 384.643 107.607 383.337 110.515C382.033 113.421 380.347 115.854 378.282 117.809C376.214 119.767 373.687 121.26 370.7 122.293C367.708 123.324 364.229 123.842 360.263 123.842C358.469 123.842 356.634 123.691 354.76 123.394C352.884 123.093 351.051 122.661 349.257 122.091C347.463 121.518 345.763 120.813 344.16 119.97C342.555 119.128 341.185 118.137 340.043 116.996L347.381 107.784C348.956 109.522 350.899 110.868 353.21 111.818C355.519 112.769 357.843 113.244 360.18 113.244C362.355 113.244 364.188 112.96 365.683 112.389C367.178 111.818 368.442 111.016 369.475 109.984C370.507 108.952 371.323 107.755 371.921 106.398C372.519 105.039 372.982 103.543 373.307 101.914L373.879 99.2235H373.634C372.492 100.691 370.822 101.969 368.619 103.055C366.419 104.144 363.931 104.685 361.159 104.685C358.441 104.685 356.021 104.265 353.902 103.422C351.783 102.58 349.988 101.412 348.522 99.9165C347.055 98.4218 345.94 96.6429 345.179 94.5775C344.418 92.5121 344.038 90.2304 344.038 87.7301C344.038 84.2527 344.595 80.9926 345.709 77.9477C346.824 74.9051 348.373 72.2407 350.357 69.959C352.341 67.6773 354.705 65.8837 357.453 64.5792C360.196 63.2759 363.227 62.6225 366.542 62.6225C369.478 62.6225 372.045 63.1807 374.247 64.2938C376.449 65.4081 378.12 66.9979 379.262 69.0633H379.507ZM356.921 86.0996C356.921 87.241 357.086 88.328 357.411 89.3607C357.737 90.3934 358.254 91.305 358.959 92.0908C359.666 92.8789 360.537 93.5051 361.57 93.966C362.602 94.4269 363.853 94.6579 365.32 94.6579C367.004 94.6579 368.567 94.3046 370.008 93.598C371.447 92.8925 372.686 91.9266 373.718 90.7037C374.75 89.4807 375.553 88.0947 376.124 86.5468C376.694 84.9989 376.98 83.3547 376.98 81.6154C376.98 79.0076 376.205 76.9275 374.656 75.3796C373.107 73.8305 371.027 73.0571 368.419 73.0571C366.625 73.0571 365.021 73.4104 363.607 74.117C362.194 74.8247 360.999 75.7759 360.022 76.9705C359.043 78.1663 358.28 79.5523 357.737 81.1274C357.193 82.7036 356.921 84.3603 356.921 86.0996Z" fill="white"/>
<path d="M409.428 87.4856C409.372 87.703 409.345 87.9476 409.345 88.2182C409.345 89.3596 409.605 90.3787 410.121 91.2755C410.638 92.1724 411.317 92.9345 412.16 93.5584C413.002 94.1846 413.954 94.6601 415.014 94.9851C416.075 95.3124 417.175 95.4743 418.316 95.4743C420.381 95.4743 422.202 95.095 423.779 94.3329C425.355 93.5731 426.767 92.5392 428.019 91.237L436.253 97.6756C433.645 100.449 430.736 102.446 427.53 103.668C424.322 104.891 420.872 105.502 417.175 105.502C414.348 105.502 411.725 105.107 409.307 104.319C406.889 103.534 404.782 102.364 402.988 100.814C401.195 99.2654 399.782 97.3495 398.749 95.0678C397.716 92.7861 397.201 90.176 397.201 87.2421C397.201 83.7646 397.811 80.5171 399.034 77.5005C400.257 74.4839 401.942 71.8625 404.09 69.634C406.236 67.4067 408.805 65.6538 411.795 64.3765C414.783 63.1003 418.073 62.4605 421.66 62.4605C424.324 62.4605 426.756 62.8421 428.957 63.6019C431.158 64.3629 433.047 65.4647 434.623 66.9039C436.2 68.3443 437.423 70.1243 438.293 72.2418C439.163 74.3616 439.598 76.8075 439.598 79.5795C439.598 80.5578 439.501 81.7943 439.311 83.2879C439.12 84.7826 438.863 86.1822 438.536 87.4867H409.428V87.4856ZM427.935 79.4968C427.99 79.2261 428.018 78.9544 428.018 78.6826V77.8673C428.018 76.0737 427.378 74.579 426.102 73.3832C424.824 72.1886 422.989 71.5896 420.599 71.5896C419.131 71.5896 417.811 71.8489 416.644 72.3641C415.476 72.8816 414.455 73.5202 413.587 74.28C412.717 75.0421 412.01 75.8835 411.468 76.8063C410.924 77.7315 410.544 78.6272 410.326 79.4957H427.935V79.4968Z" fill="white"/>
<path d="M444.242 73.4647L446.035 63.6824H452.477L454.353 52.9227H467.07L465.196 63.6824H473.839L472.045 73.4647H463.648L460.712 89.4207C460.657 89.8023 460.616 90.1987 460.59 90.6074C460.562 91.0173 460.549 91.3582 460.549 91.63C460.549 92.9944 460.929 93.9207 461.691 94.4122C462.451 94.9036 463.484 95.1482 464.788 95.1482C465.441 95.1482 466.079 95.0938 466.704 94.984C467.329 94.8753 467.886 94.7677 468.376 94.659L467.152 104.033C466.391 104.359 465.318 104.644 463.932 104.889C462.546 105.133 461.228 105.256 459.978 105.256C456.065 105.256 452.978 104.465 450.724 102.883C448.468 101.305 447.341 98.7989 447.341 95.3656C447.341 94.7122 447.382 93.9626 447.462 93.119C447.543 92.2743 447.666 91.4714 447.829 90.7082L450.928 73.4636H444.242V73.4647Z" fill="white"/>
<path d="M514.118 75.5845C514.118 76.3455 514.077 77.1607 513.994 78.0293C513.914 78.8989 513.79 79.7402 513.628 80.5567L510.856 96.3711C510.584 97.7843 510.38 99.2246 510.245 100.69C510.108 102.157 510.04 103.354 510.04 104.277H498.463C498.463 103.68 498.489 102.986 498.544 102.198C498.597 101.411 498.678 100.664 498.789 99.9573H498.625C495.635 103.49 491.504 105.257 486.233 105.257C484.818 105.257 483.365 105.079 481.87 104.727C480.375 104.372 479.016 103.776 477.794 102.932C476.569 102.091 475.577 100.975 474.816 99.5904C474.055 98.2056 473.675 96.5059 473.675 94.4959C473.675 91.2359 474.491 88.5737 476.121 86.5072C477.751 84.4429 479.884 82.8395 482.521 81.6981C485.157 80.5567 488.147 79.7697 491.489 79.3337C494.832 78.8989 498.188 78.6815 501.559 78.6815C501.668 78.1923 501.724 77.813 501.724 77.5401V76.8063C501.724 75.2312 501.164 74.0762 500.051 73.3424C498.937 72.6087 497.374 72.2407 495.362 72.2407C493.514 72.2407 491.653 72.5951 489.778 73.3017C487.902 74.0094 486.203 74.9323 484.682 76.0737L479.3 68.5741C481.746 66.6174 484.559 65.1091 487.738 64.0492C490.919 62.9893 494.056 62.4605 497.155 62.4605C499.601 62.4605 501.855 62.7187 503.923 63.2351C505.988 63.7525 507.769 64.5531 509.264 65.6402C510.757 66.7284 511.94 68.0861 512.811 69.7166C513.681 71.345 514.118 73.3017 514.118 75.5845ZM499.684 86.5072C498.054 86.5072 496.395 86.5774 494.711 86.711C493.026 86.8469 491.516 87.1334 490.185 87.5671C488.852 88.003 487.752 88.5998 486.884 89.3607C486.013 90.1217 485.579 91.1283 485.579 92.3773C485.579 94.0068 486.136 95.1063 487.252 95.677C488.364 96.2477 489.601 96.5331 490.961 96.5331C493.459 96.5331 495.554 95.7585 497.238 94.2106C498.922 92.6615 499.983 90.7456 500.419 88.4639L500.826 86.5072H499.684Z" fill="white"/>
<path d="M538.168 69.6329C539.471 67.5686 541.034 65.8837 542.857 64.5792C544.677 63.2759 546.865 62.6225 549.42 62.6225C549.909 62.6225 550.412 62.6508 550.929 62.704C551.444 62.7584 551.865 62.8399 552.191 62.9486L550.071 74.5235C549.473 74.3604 548.904 74.2529 548.359 74.1974C547.815 74.1442 547.3 74.1159 546.811 74.1159C544.907 74.1159 543.304 74.4431 541.999 75.0942C540.696 75.7465 539.621 76.5493 538.779 77.4994C537.936 78.4505 537.31 79.4696 536.904 80.5567C536.497 81.6449 536.212 82.5949 536.048 83.4102L532.379 104.278H519.334L525.122 72.0788C525.338 71.0472 525.57 69.7156 525.815 68.085C526.06 66.4544 526.235 64.988 526.345 63.6824H538.738C538.738 63.9553 538.71 64.3493 538.656 64.8645C538.602 65.382 538.535 65.9244 538.452 66.494C538.372 67.0647 538.288 67.6354 538.207 68.2061C538.127 68.7757 538.057 69.2536 538.004 69.6318H538.168V69.6329Z" fill="white"/>
<path d="M550.479 104.278L557.572 63.6824H570.7L563.444 104.278H550.479ZM573.471 50.0692C573.471 51.1563 573.281 52.1618 572.901 53.0858C572.52 54.0109 571.99 54.8387 571.31 55.5724C570.631 56.3062 569.83 56.8769 568.906 57.2845C567.982 57.691 566.976 57.896 565.889 57.896C563.823 57.896 562.125 57.2845 560.794 56.0616C559.46 54.8387 558.794 53.2783 558.794 51.3748C558.794 49.1463 559.542 47.2859 561.037 45.79C562.531 44.2953 564.367 43.548 566.54 43.548C568.549 43.548 570.21 44.173 571.514 45.4232C572.819 46.6733 573.471 48.2223 573.471 50.0692Z" fill="white"/>
<path d="M614.564 75.5845C614.564 76.3455 614.523 77.1607 614.441 78.0293C614.361 78.8989 614.237 79.7402 614.074 80.5567L611.303 96.3711C611.031 97.7843 610.826 99.2246 610.692 100.69C610.555 102.157 610.487 103.354 610.487 104.277H598.909C598.909 103.68 598.935 102.986 598.991 102.198C599.044 101.411 599.125 100.664 599.235 99.9573H599.071C596.082 103.49 591.951 105.257 586.679 105.257C585.265 105.257 583.812 105.079 582.317 104.727C580.822 104.372 579.462 103.776 578.239 102.932C577.016 102.091 576.023 100.975 575.263 99.5904C574.501 98.2044 574.121 96.5059 574.121 94.4959C574.121 91.2359 574.937 88.5737 576.568 86.5072C578.198 84.4429 580.33 82.8395 582.967 81.6981C585.602 80.5567 588.594 79.7697 591.936 79.3337C595.279 78.8989 598.634 78.6815 602.006 78.6815C602.114 78.1923 602.17 77.813 602.17 77.5401V76.8063C602.17 75.2312 601.611 74.0762 600.498 73.3424C599.384 72.6087 597.819 72.2407 595.809 72.2407C593.961 72.2407 592.1 72.5951 590.223 73.3017C588.348 74.0094 586.649 74.9323 585.128 76.0737L579.747 68.5741C582.192 66.6174 585.005 65.1091 588.186 64.0492C591.365 62.9893 594.503 62.4605 597.602 62.4605C600.047 62.4605 602.302 62.7187 604.369 63.2351C606.434 63.7525 608.214 64.5531 609.709 65.6402C611.203 66.7284 612.387 68.0861 613.257 69.7166C614.128 71.345 614.564 73.3017 614.564 75.5845ZM600.133 86.5072C598.501 86.5072 596.843 86.5774 595.158 86.711C593.473 86.8469 591.964 87.1334 590.633 87.5671C589.3 88.003 588.201 88.5998 587.331 89.3607C586.46 90.1217 586.027 91.1283 586.027 92.3773C586.027 94.0068 586.583 95.1063 587.699 95.677C588.811 96.2477 590.049 96.5331 591.408 96.5331C593.908 96.5331 596.001 95.7585 597.686 94.2106C599.37 92.6615 600.43 90.7456 600.866 88.4639L601.273 86.5072H600.133Z" fill="white"/>
<path d="M638.778 69.5513C640.082 67.5414 641.822 65.8836 643.995 64.578C646.169 63.2736 648.67 62.6213 651.497 62.6213C653.78 62.6213 655.736 62.9486 657.368 63.5997C658.998 64.2519 660.345 65.1488 661.402 66.289C662.464 67.4305 663.237 68.7474 663.728 70.2421C664.217 71.7368 664.461 73.2994 664.461 74.93C664.461 75.691 664.433 76.4383 664.379 77.1709C664.324 77.9036 664.216 78.6249 664.054 79.3315L659.65 104.276H646.604L650.436 82.3254C650.707 81.0787 650.843 79.9407 650.843 78.9102C650.843 77.3918 650.448 76.1054 649.662 75.0478C648.873 73.9902 647.473 73.4625 645.462 73.4625C644.265 73.4625 643.192 73.6935 642.24 74.1544C641.29 74.6152 640.447 75.2527 639.715 76.0657C638.982 76.8788 638.382 77.8266 637.922 78.9114C637.458 79.995 637.119 81.1342 636.902 82.3266L632.988 104.277H619.943L625.57 72.0776C625.785 71.0461 626.018 69.7144 626.261 68.0838C626.505 66.4532 626.682 64.9868 626.792 63.6812H639.267C639.212 64.3335 639.115 65.2586 638.982 66.4532C638.845 67.6501 638.722 68.6828 638.615 69.5513H638.778Z" fill="white"/>
<path d="M691.529 105.42C688.593 105.42 685.863 105.013 683.335 104.197C680.809 103.382 678.633 102.199 676.812 100.651C674.991 99.1012 673.551 97.2283 672.491 95.0259C671.432 92.8246 670.902 90.3391 670.902 87.5671C670.902 84.1983 671.473 80.9926 672.615 77.9477C673.756 74.9051 675.401 72.2407 677.547 69.959C679.694 67.6773 682.29 65.8565 685.334 64.4977C688.378 63.14 691.829 62.4605 695.689 62.4605C698.678 62.4605 701.45 62.8682 704.006 63.6824C706.559 64.4977 708.762 65.6798 710.609 67.2289C712.456 68.7779 713.912 70.652 714.973 72.8533C716.033 75.0546 716.562 77.5412 716.562 80.3121C716.562 83.7363 715.991 86.9692 714.85 90.013C713.708 93.0567 712.049 95.72 709.876 98.0017C707.7 100.285 705.079 102.091 702.007 103.422C698.936 104.754 695.443 105.42 691.529 105.42ZM703.678 81.6981C703.678 79.2522 702.93 77.2151 701.437 75.5845C699.94 73.9539 697.835 73.1386 695.118 73.1386C693.378 73.1386 691.802 73.4931 690.389 74.1985C688.975 74.9051 687.78 75.8563 686.801 77.052C685.823 78.2478 685.061 79.6338 684.518 81.2089C683.974 82.7863 683.702 84.4429 683.702 86.1811C683.702 88.627 684.435 90.6527 685.904 92.255C687.371 93.8573 689.463 94.6601 692.181 94.6601C693.92 94.6601 695.497 94.3204 696.911 93.641C698.324 92.9616 699.532 92.024 700.538 90.8283C701.544 89.6348 702.319 88.2487 702.862 86.6725C703.406 85.0951 703.678 83.4374 703.678 81.6981Z" fill="white"/>
<path d="M248.383 44.2693L257.344 103.006L257.857 102.174L267.688 86.2219L263.12 44.2693H248.383Z" fill="white"/>
<path d="M321.423 16.1722C321.36 18.4211 321.281 21.714 320.526 25.5866C319.884 28.8115 319.345 31.5654 317.583 34.8085C315.203 39.1692 312.137 41.6728 311.098 42.4745C310.324 43.0769 309.967 43.343 309.257 43.7518C306.002 45.3926 301.045 47.2666 294.922 47.261C294.819 47.261 294.723 47.261 294.621 47.2553C292.804 49.8846 291.021 52.6883 289.289 55.6698C278.815 73.7206 274.414 91.4431 272.552 105.286H257.881L268.814 87.2081C268.434 87.8037 269.174 86.5468 268.814 87.2081L290.47 47.4999L290.771 46.9609C290.783 46.9609 290.783 46.9496 290.783 46.9496C291.26 46.6031 291.839 46.1603 291.936 46.098C293.445 44.9793 294.298 44.3485 294.788 43.9851C295.413 43.5129 295.429 43.497 295.508 43.4347C297.808 41.6569 299.416 39.9595 300.359 38.9484C302.058 37.1264 303.238 35.5479 303.789 34.8096C305.538 32.4022 306.579 30.4489 307.271 29.1252C307.271 29.1252 308.09 27.5694 308.889 25.3035C309.082 24.7532 309.377 23.8665 309.377 22.7195V22.1238C309.315 22.4069 309.208 22.8169 309.048 23.2879C308.752 24.1677 308.435 24.7985 308.026 25.5707C307.209 27.1096 306.8 27.8706 306.419 28.4945C305.46 30.056 304.625 31.1408 304.028 31.8961C303.727 32.2754 302.393 33.9739 300.342 36.0348C298.752 37.6416 297.416 38.7774 296.86 39.2326C293.998 41.6218 291.272 43.326 288.802 44.8706C288.66 44.9623 288.553 45.0246 288.472 45.0755L288.233 44.2693L288.143 44.0021C287.949 43.2128 287.858 42.6512 287.512 41.2142C285.388 32.2256 290.455 24.5595 291.102 23.6344C293.226 20.6144 295.873 18.677 297.071 17.7915C298.69 16.5991 300.484 15.5426 302.704 14.237C304.846 12.9767 305.351 12.7729 307.333 11.5567C307.724 11.3065 309.508 10.2217 311.854 8.5696C314.432 6.75784 315.739 5.861 316.954 4.64599C318.465 3.13543 319.504 1.67017 320.181 0.557068C320.26 1.07342 320.369 1.86266 320.498 2.8229C320.651 4.14549 320.731 5.08761 320.782 5.70135C321.077 9.27279 321.254 9.557 321.378 11.6235C321.503 13.4466 321.457 14.7873 321.423 16.1722Z" fill="#8CC63F"/>
</svg>
