<svg width="162" height="20" viewBox="0 0 162 20" fill="none" xmlns="http://www.w3.org/2000/svg">
<rect y="4" width="40" height="12" fill="#D3D8CD"/>
<path d="M59 4L64.5385 10L70.0769 16L75.6154 10L81.1538 4" stroke="#D3D8CD" stroke-width="5" stroke-linecap="round"/>
<path d="M70.0769 16L75.6154 10L81.1539 4L86.6923 10L92.2308 16" stroke="#D3D8CD" stroke-width="5" stroke-linecap="round"/>
<path d="M81.1538 4L86.6923 10L92.2308 16L97.7692 10L103.308 4" stroke="#D3D8CD" stroke-width="5" stroke-linecap="round"/>
<path d="M92.2308 16L97.7692 10L103.308 4L108.846 10L114.385 16" stroke="#D3D8CD" stroke-width="5" stroke-linecap="round"/>
<path d="M103.308 4L108.846 10L114.385 16L119.923 10L125.462 4" stroke="#D3D8CD" stroke-width="5" stroke-linecap="round"/>
<path d="M114.385 16L119.923 10L125.462 4L131 10L136.538 16" stroke="#D3D8CD" stroke-width="5" stroke-linecap="round"/>
<path d="M125.462 4L131 10L136.538 16L142.077 10L147.615 4" stroke="#D3D8CD" stroke-width="5" stroke-linecap="round"/>
<path d="M136.538 16L142.077 10L147.615 4L153.154 10L158.692 16" stroke="#D3D8CD" stroke-width="5" stroke-linecap="round"/>
</svg>
