<?xml version="1.0" encoding="UTF-8"?> <svg xmlns="http://www.w3.org/2000/svg" id="Layer_1" data-name="Layer 1" viewBox="0 0 600 600"><defs><style>.cls-1{fill:#272626;}.cls-2{fill:#5fb746;}</style></defs><title>Delivery logos</title><path class="cls-1" d="M520.94,186.91c-14.53,0-24.83,11.36-24.83,28.81v64H473.93V167.07h21.91v13.76a29.72,29.72,0,0,1,26.4-14.56h8v20.64ZM458.61,223.4c0-33.6-23.91-58.72-56.25-58.72a58,58,0,0,0-57.59,58.37c0,.11,0,.23,0,.35,0,33.57,25.89,59,59.67,59a58.93,58.93,0,0,0,48.61-24.06L437,246.5a39.24,39.24,0,0,1-32.51,16.39,37.78,37.78,0,0,1-37.18-32.24h91.39Zm-90.86-10.33c4-17.19,17.69-28.82,34.34-28.82s30.36,11.63,34.07,28.82Zm-93.22-48.39a56.11,56.11,0,0,0-39.84,16.65V125H212.52V279.73h21.91V265.44a57,57,0,0,0,40.15,16.92,58.85,58.85,0,0,0,2.5-117.68c-.83,0-1.66,0-2.5,0Zm-1.59,97.87a39,39,0,1,1,38.83-39.2v.31a38.73,38.73,0,0,1-38.67,38.78h-.16Zm-142.09-1.07c21.41,0,38-16.41,38-41V125h23V279.73h-22.7V265.09a56.44,56.44,0,0,1-40.93,17.19c-33,0-58.43-24.06-58.43-60.55V125h23.4v95.61C93.19,245.34,109.13,261.48,130.85,261.48Z"></path><path class="cls-2" d="M69.83,317.36H178.38v26.56H99.15v37.71h77v25.66h-77v38.35h79.23V472.2H69.83ZM478.14,475c33.28,0,52-15.94,52-37.82,0-15.59-11.1-27.22-34.34-32.27l-24.57-5c-14.26-2.66-18.75-5.31-18.75-10.62,0-6.88,6.88-11.1,19.55-11.1,13.73,0,23.9,3.69,26.56,16.38h28.79c-1.57-23.9-18.76-39.68-53.6-39.68-30.12,0-51.26,12.43-51.26,36.52,0,16.65,11.64,27.49,36.73,32.77l27.46,6.35c10.84,2.13,13.73,5.05,13.73,9.54,0,7.14-8.17,11.63-21.4,11.63-16.63,0-26.13-3.69-29.83-16.39H420.3C424.52,459.13,442.21,475,478.14,475Zm-66.21-2.9H380.78c-19.55,0-30.39-12.16-30.39-27.51V383.76H328.48V357.84h22V325.3h28.95v32.54h32.48v25.92H379.45v53.41c0,6.08,4.22,9,10.83,9h21.65ZM287.11,357.89V368.2a56.17,56.17,0,0,0-36.47-13.28A60,60,0,1,0,248.12,475h2.52a56.09,56.09,0,0,0,36.47-13.28V472H316V357.84Zm-34.08,92a34.93,34.93,0,1,1,34.53-35.32V415a34.52,34.52,0,0,1-34.21,34.84H253Z"></path></svg> 